<?xml version="1.0" encoding="utf-8"?>
<svg viewBox="5.948 -2.224 433.611 98.653" xmlns="http://www.w3.org/2000/svg">
  <g transform="matrix(0.015497, 0, 0, -0.015497, 5.467875, 85.429771)" fill="#000000" stroke="none" style="">
    <path d="M2969 4882 c-21 -2 -26 -7 -22 -23 6 -22 0 -24 -28 -9 -24 14 -61 -4 -57 -28 3 -20 -32 -63 -44 -56 -5 3 -6 9 -3 14 3 4 -3 7 -13 6 -9 0 -18 6 -18 14 -1 8 -2 19 -3 24 0 5 -7 4 -13 -1 -7 -6 -25 -13 -40 -17 -16 -3 -28 -11 -28 -16 0 -6 -16 -10 -35 -10 -27 0 -35 -4 -35 -18 0 -13 -7 -18 -21 -18 -12 1 -24 -5 -26 -11 -3 -8 4 -13 17 -13 16 0 20 -4 15 -19 -3 -11 -1 -22 6 -26 7 -5 1 -16 -18 -34 -15 -15 -36 -40 -45 -56 -12 -21 -23 -29 -37 -27 -12 2 -21 -2 -21 -8 0 -6 -4 -8 -10 -5 -5 3 -10 14 -10 24 0 15 7 18 35 14 27 -3 35 0 35 13 0 12 -8 15 -32 12 -32 -3 -117 29 -118 45 0 4 12 7 26 7 22 0 24 3 15 14 -16 19 -60 29 -75 17 -7 -6 -16 -8 -19 -4 -4 3 -7 1 -7 -5 0 -7 -8 -12 -19 -12 -10 0 -30 -9 -44 -20 l-25 -20 2 25 c0 14 6 25 13 25 7 0 10 7 6 16 -4 12 -8 13 -14 3 -9 -16 -80 3 -99 26 -14 17 -30 11 -30 -11 0 -8 7 -14 15 -14 16 0 21 -25 6 -34 -5 -3 -19 2 -31 12 l-22 18 30 60 c53 106 54 104 -23 104 -76 0 -102 -10 -117 -48 -6 -15 -12 -22 -15 -14 -6 17 -30 15 -37 -3 -3 -10 3 -17 18 -21 20 -5 25 -13 28 -52 3 -26 1 -51 -4 -57 -6 -6 -6 -3 -2 8 6 15 3 17 -20 11 -19 -4 -26 -2 -26 9 0 18 -21 27 -49 20 -27 -7 -60 5 -43 16 18 11 4 74 -15 67 -40 -16 -64 -18 -61 -6 2 6 -5 17 -14 23 -25 17 -47 -6 -31 -32 10 -16 9 -20 -8 -24 -15 -4 -19 -14 -19 -44 0 -33 -4 -42 -25 -51 -37 -17 -45 -15 -45 10 0 12 -3 19 -6 15 -12 -12 6 -77 21 -77 8 0 15 -6 15 -14 0 -9 -7 -12 -20 -9 -16 4 -20 0 -20 -21 0 -20 -5 -26 -21 -26 -11 0 -17 5 -14 10 3 6 0 10 -8 10 -9 0 -18 21 -26 58 -7 31 -15 63 -17 70 -7 22 -29 7 -26 -18 1 -12 -6 -28 -15 -35 -14 -11 -15 -16 -5 -28 9 -10 10 -17 2 -22 -5 -3 -13 0 -16 8 -4 12 -11 13 -35 4 -34 -13 -37 -22 -8 -24 31 -3 46 -20 31 -35 -7 -7 -12 -29 -12 -50 0 -21 -4 -38 -10 -38 -5 0 -7 -6 -4 -14 4 -11 12 -11 46 1 29 10 44 11 52 3 7 -7 2 -10 -16 -10 -14 0 -31 -6 -38 -14 -6 -8 -18 -12 -26 -9 -10 4 -12 0 -7 -13 6 -17 5 -17 -10 -5 -9 7 -17 20 -17 27 0 8 -4 14 -10 14 -5 0 -9 5 -7 11 1 6 -4 14 -10 16 -9 3 -13 -6 -13 -26 0 -16 -5 -33 -10 -36 -8 -5 -7 -11 1 -21 10 -12 9 -13 -5 -8 -12 5 -15 14 -11 33 3 16 0 34 -9 46 -13 17 -15 18 -16 3 0 -9 -6 -18 -12 -21 -10 -3 -10 -7 -2 -18 29 -37 -15 -82 -53 -54 -10 7 -19 17 -19 22 -9 52 -50 75 -61 33 -3 -11 -9 -20 -14 -20 -5 0 -6 7 -2 16 5 14 2 16 -23 10 -16 -4 -36 -13 -44 -20 -19 -16 -50 -9 -50 10 0 8 5 14 10 14 6 0 5 6 -2 14 -10 11 -16 11 -27 2 -30 -24 -54 -116 -31 -116 6 0 10 9 10 20 0 10 10 24 21 31 21 11 22 10 16 -26 -5 -29 -3 -36 8 -31 7 2 19 -3 27 -11 11 -15 11 -16 -6 -9 -19 7 -19 6 -1 -14 18 -20 18 -20 -3 -20 -12 0 -23 -8 -27 -20 -3 -11 -14 -20 -23 -20 -10 0 -22 -10 -27 -22 -14 -33 -58 -46 -80 -24 -9 9 -25 15 -34 12 -9 -2 -37 -7 -63 -11 -40 -5 -48 -10 -57 -36 -10 -29 -9 -32 19 -42 17 -6 30 -15 30 -19 0 -4 20 -17 45 -28 25 -11 45 -27 45 -36 0 -11 6 -13 19 -9 16 5 18 2 14 -15 -6 -23 -41 -27 -62 -7 -11 10 -12 8 -6 -10 4 -15 2 -23 -6 -23 -8 0 -7 -5 3 -17 9 -10 13 -23 11 -30 -2 -6 1 -14 7 -18 8 -5 8 -11 -1 -21 -9 -11 -9 -18 -1 -26 20 -20 14 -27 -30 -39 -24 -7 -49 -19 -56 -28 -6 -8 -12 -10 -12 -4 0 7 5 15 10 18 16 10 12 28 -5 21 -10 -4 -17 3 -21 22 -3 15 -8 34 -11 42 -4 8 -5 21 -4 29 2 12 -11 13 -75 8 -43 -4 -79 -9 -81 -11 -3 -2 -1 -21 3 -41 7 -41 38 -79 72 -89 12 -4 22 -11 22 -16 0 -14 -42 -33 -49 -23 -3 5 -21 15 -39 21 -74 25 -148 -44 -122 -113 9 -24 15 -27 45 -23 28 3 35 1 35 -13 0 -10 -10 -20 -22 -24 -13 -3 -32 -10 -43 -14 -78 -32 -75 -32 -75 -11 0 21 -15 27 -25 10 -9 -15 -25 -12 -25 5 0 21 -27 19 -61 -6 -31 -22 -38 -53 -14 -63 8 -3 15 -11 15 -19 0 -7 13 -26 30 -42 28 -27 30 -28 30 -7 0 30 15 35 45 16 20 -13 31 -14 56 -5 42 15 59 14 59 -3 0 -13 -41 -26 -86 -26 -13 0 -24 -4 -24 -10 0 -5 -9 -10 -21 -10 -15 0 -19 -5 -15 -17 3 -10 1 -25 -4 -33 -6 -10 -10 -11 -10 -2 0 6 -5 12 -11 12 -16 0 -83 -32 -90 -43 -4 -5 -12 -1 -18 9 -8 15 -10 16 -11 4 0 -21 20 -40 40 -40 22 0 61 -46 54 -65 -5 -11 -13 -9 -42 15 -41 32 -82 36 -82 8 0 -10 5 -18 10 -18 6 0 5 -8 -2 -20 -16 -25 -20 -25 -49 1 l-24 20 28 -4 c29 -5 35 4 13 22 -10 8 -20 8 -42 -4 -16 -8 -35 -15 -43 -15 -9 0 -11 -7 -8 -22 4 -12 1 -28 -6 -36 -9 -11 -8 -17 6 -27 9 -7 17 -17 17 -22 0 -5 9 -18 20 -28 21 -19 18 -37 -5 -28 -11 4 -15 -3 -15 -28 0 -18 -7 -41 -16 -51 -16 -17 -18 -17 -30 0 -16 22 -32 7 -17 -17 7 -10 9 -28 6 -40 -3 -13 1 -29 10 -39 9 -9 15 -32 15 -50 -1 -24 6 -41 25 -58 32 -30 36 -64 7 -64 -16 0 -18 -4 -11 -22 7 -18 16 -22 59 -22 28 -1 54 -4 58 -8 4 -5 3 -8 -3 -8 -16 0 -13 -51 3 -57 26 -10 11 -127 -16 -129 -30 -2 -32 -4 -21 -18 8 -10 9 -16 2 -21 -6 -3 -16 5 -23 19 -14 31 -19 32 -36 5 -11 -17 -11 -25 3 -45 8 -13 20 -24 26 -24 8 0 7 -5 -1 -15 -10 -12 -8 -16 13 -24 14 -5 28 -15 32 -20 9 -15 -1 -14 -36 5 -17 8 -33 14 -35 11 -10 -10 9 -36 32 -41 15 -4 22 -11 18 -18 -5 -7 -2 -9 7 -6 8 3 23 0 34 -8 18 -13 18 -14 -4 -14 -12 0 -31 5 -41 10 -16 8 -18 8 -14 -5 4 -8 14 -15 23 -15 11 0 12 -3 4 -8 -10 -6 -10 -16 -1 -45 12 -38 27 -50 24 -20 -1 13 5 17 19 14 18 -3 19 -2 4 15 -29 34 -31 43 -8 37 12 -4 24 -14 26 -23 3 -12 12 -16 29 -12 16 3 24 0 24 -9 0 -26 48 -62 73 -55 35 8 70 -20 64 -52 -4 -20 5 -38 39 -78 24 -28 44 -54 44 -57 0 -3 -21 -7 -46 -9 -39 -3 -50 1 -80 28 -22 21 -34 41 -34 58 0 15 -7 29 -15 32 -8 4 -15 15 -15 25 0 10 -5 19 -10 19 -6 0 -21 10 -34 23 -12 12 -33 23 -45 23 -35 0 -17 -49 40 -108 27 -28 49 -56 49 -62 1 -19 44 -64 73 -75 15 -6 27 -17 27 -26 0 -25 27 -17 34 10 4 14 10 25 14 25 5 0 28 -16 51 -37 33 -28 42 -41 38 -60 -4 -23 7 -31 18 -13 3 5 14 10 23 10 9 0 27 6 39 13 64 36 86 46 94 41 15 -9 79 8 79 21 0 7 -5 15 -12 17 -9 3 -9 6 0 12 7 4 12 2 12 -3 0 -19 18 -12 50 20 20 21 43 33 66 35 35 3 94 32 94 46 0 4 29 39 65 77 36 37 65 74 65 80 0 6 4 11 8 11 4 0 16 15 27 33 89 153 228 257 385 288 56 11 61 10 103 -14 45 -26 117 -103 219 -232 30 -38 62 -76 71 -84 10 -7 17 -18 17 -23 0 -6 15 -36 34 -67 19 -31 52 -92 75 -136 l41 -80 0 -128 c0 -101 -3 -127 -13 -125 -7 2 -30 -3 -50 -11 -33 -13 -37 -18 -36 -50 0 -32 1 -33 9 -13 11 27 14 27 51 5 33 -20 46 -63 34 -121 -4 -20 -7 -48 -7 -62 4 -140 -1 -356 -8 -376 -6 -14 -10 -36 -10 -49 0 -12 -27 -76 -61 -141 -109 -215 -186 -261 -514 -308 -60 -9 -164 -21 -230 -27 -66 -6 -123 -13 -126 -15 -3 -2 -71 -15 -150 -28 -79 -14 -184 -32 -234 -41 -49 -9 -152 -27 -228 -40 -142 -24 -194 -40 -97 -31 30 3 111 10 180 16 69 5 175 14 235 20 261 22 815 35 1545 34 719 0 960 -7 1315 -34 66 -5 226 -12 355 -14 l235 -5 -85 18 c-87 19 -286 46 -420 56 -106 8 -345 40 -345 45 0 1 -36 3 -80 5 -44 2 -93 8 -108 14 -16 6 -59 11 -97 11 -104 0 -278 29 -332 54 -45 22 -97 73 -146 143 -45 65 -51 101 -56 361 -8 386 -15 476 -44 567 -22 73 -24 91 -19 205 7 163 37 298 77 353 61 84 169 184 204 190 41 7 143 46 261 102 105 49 192 72 290 77 l70 3 3 -837 2 -838 -98 0 -97 0 3 -82 c2 -46 5 -84 6 -84 5 -5 299 18 386 30 58 9 137 18 175 21 113 10 115 13 99 93 -5 25 -14 34 -48 45 l-41 14 3 759 c2 474 6 762 12 768 7 7 14 6 22 -2 18 -18 62 -16 55 2 -7 18 18 40 33 31 6 -4 23 -24 38 -44 32 -44 100 -106 108 -98 3 3 6 26 7 51 0 25 5 46 9 46 4 0 8 -4 8 -9 0 -5 11 -19 24 -32 20 -19 23 -30 20 -68 -7 -72 -8 -74 -50 -56 -55 23 -78 20 -70 -7 3 -13 6 -28 6 -34 0 -20 44 -30 121 -28 63 2 81 6 98 23 19 19 19 22 5 58 -9 21 -25 46 -37 56 -17 15 -18 18 -4 13 12 -4 17 0 17 12 0 11 14 2 44 -29 23 -25 45 -51 47 -58 9 -25 49 10 49 42 0 24 -3 27 -23 22 -18 -5 -26 0 -37 19 -7 14 -19 26 -27 26 -14 0 -18 38 -5 56 4 6 19 14 35 18 15 3 27 10 27 15 0 17 -30 40 -45 35 -20 -8 -29 20 -15 45 14 26 30 18 30 -15 0 -17 6 -24 19 -24 21 0 33 -23 39 -77 1 -7 13 -13 27 -13 31 0 35 34 5 50 -11 6 -23 22 -26 35 -3 14 -12 25 -19 25 -38 0 -36 73 3 77 14 2 22 -3 22 -12 0 -8 7 -15 15 -15 18 0 20 -31 3 -48 -13 -13 0 -16 18 -4 6 4 15 42 21 84 8 73 8 77 -11 80 -13 2 -23 14 -28 36 -8 32 -11 33 -48 31 -28 -2 -45 2 -58 14 -16 17 -16 18 1 11 12 -4 17 -1 17 14 0 10 9 31 21 46 19 24 18 31 -3 27 -23 -3 -3 17 31 31 32 14 56 16 101 9 3 -1 -2 -6 -10 -11 -10 -6 -11 -10 -2 -10 6 0 12 -5 12 -10 0 -6 -6 -10 -14 -8 -8 2 -15 0 -15 -4 -1 -11 2 -12 26 -4 14 4 20 12 16 22 -3 8 1 14 9 14 24 0 82 -22 101 -38 20 -18 25 -15 36 26 8 27 5 35 -25 66 -19 19 -34 37 -34 41 0 3 14 5 31 5 25 0 29 3 24 19 -5 16 -2 18 15 14 19 -5 20 -3 9 21 -7 14 -20 28 -31 31 -19 7 -23 17 -11 28 3 4 14 0 24 -9 10 -9 25 -14 34 -11 17 7 20 43 4 53 -7 4 -9 21 -6 41 4 24 2 36 -8 39 -11 4 -8 12 11 29 18 17 24 30 19 44 -4 12 0 23 9 28 27 15 22 35 -14 48 l-35 13 34 1 c24 1 32 5 28 15 -11 29 -19 136 -12 163 6 26 7 27 20 10 8 -11 11 -25 9 -32 -3 -7 -1 -16 5 -20 6 -3 11 -1 11 4 0 15 12 14 35 -3 16 -12 17 -16 6 -30 -16 -20 -3 -20 22 -1 22 16 14 60 -9 51 -8 -3 -14 -2 -14 3 0 5 -9 11 -20 14 -28 7 -26 54 2 84 19 20 20 27 10 43 -14 23 -16 33 -4 26 4 -2 9 4 9 15 2 16 -1 17 -18 9 -23 -13 -39 -5 -39 17 0 12 3 13 14 4 8 -7 22 -8 36 -3 14 5 19 11 13 15 -6 4 -9 16 -6 27 4 14 0 20 -10 20 -9 0 -19 9 -22 20 -7 21 -25 28 -25 10 0 -5 -4 -10 -10 -10 -5 0 -7 7 -4 15 4 10 0 15 -11 15 -12 0 -15 5 -10 18 3 9 9 31 12 47 4 17 10 33 16 36 5 4 2 17 -7 31 -9 14 -14 31 -11 39 4 10 -3 14 -25 14 -22 0 -30 -5 -30 -17 0 -10 -5 -18 -11 -18 -7 0 -8 11 -4 30 8 37 -8 40 -31 5 -18 -27 -54 -34 -54 -11 0 8 4 26 9 40 8 20 6 27 -13 39 -20 13 -23 13 -32 0 -6 -9 -29 -17 -62 -19 -52 -3 -62 2 -41 23 9 9 7 10 -10 6 -11 -3 -21 -12 -21 -19 0 -8 -10 -14 -25 -14 -18 0 -26 7 -31 24 -3 13 -16 29 -29 36 l-24 13 37 38 c20 22 42 39 48 39 17 0 72 47 85 73 10 17 9 19 -5 14 -8 -3 -18 -2 -21 2 -2 5 6 12 20 15 25 6 34 29 16 41 -14 8 -227 16 -246 9 -11 -5 -13 -10 -5 -19 8 -9 8 -15 0 -20 -5 -3 -10 -16 -10 -29 0 -22 -17 -46 -33 -46 -5 0 -7 7 -4 15 9 22 -11 28 -38 11 -34 -22 -42 -20 -42 10 0 15 -8 31 -17 36 -30 17 -16 29 15 12 33 -16 48 -9 49 23 0 9 11 11 33 7 24 -4 28 -3 17 5 -9 6 -10 11 -3 11 20 0 43 30 43 56 0 21 -3 23 -18 15 -13 -7 -23 -6 -31 2 -9 9 -16 9 -32 -1 -25 -16 -49 -1 -49 29 0 14 7 19 30 19 17 0 44 7 59 15 16 8 31 11 35 8 3 -4 6 -1 6 6 0 7 6 11 13 8 17 -6 44 9 34 19 -4 4 -18 2 -32 -4 -13 -6 -27 -7 -30 -3 -3 5 2 12 11 15 8 3 13 10 9 15 -3 5 -1 12 5 16 5 3 10 1 10 -4 0 -6 7 -11 15 -11 22 0 19 27 -4 33 -10 2 -26 0 -35 -5 -10 -6 -16 -5 -16 2 0 5 -7 10 -15 10 -8 0 -15 5 -15 10 0 6 -5 10 -10 10 -6 0 -10 -6 -9 -12 5 -39 -10 -57 -51 -63 -17 -2 -30 -19 -30 -40 0 -18 -4 -22 -21 -18 -14 4 -17 9 -10 16 16 16 13 27 -5 27 -10 0 -14 6 -11 15 8 20 -57 32 -78 15 -13 -10 -15 -9 -16 11 l0 24 -9 -22 c-9 -22 -29 -28 -72 -25 -10 1 -18 -3 -18 -8 0 -6 5 -10 10 -10 13 0 13 -27 0 -35 -6 -4 -17 -1 -25 5 -11 9 -18 9 -30 -4 -22 -21 -24 -20 -17 7 5 19 3 20 -10 9 -20 -16 -32 -1 -23 28 7 22 -13 28 -32 9 -7 -7 -14 -1 -22 22 -10 30 -12 31 -25 14 -7 -10 -18 -15 -23 -12 -6 4 -13 0 -17 -8 -3 -8 -1 -17 5 -21 6 -4 6 -11 -2 -20 -17 -21 -32 -17 -26 6 3 11 1 23 -4 26 -15 9 30 64 52 64 19 0 37 25 26 36 -10 10 -76 -25 -87 -46 l-12 -22 -28 27 c-18 17 -30 23 -35 16 -3 -6 -11 -9 -16 -5 -5 3 -7 9 -4 14 3 4 -2 14 -11 21 -12 10 -15 10 -12 -2 2 -10 -5 -13 -21 -11 -49 5 -61 37 -36 95 5 13 2 17 -13 17 -12 0 -24 -5 -28 -11 -3 -6 -17 -9 -30 -6 -13 2 -29 -2 -36 -10 -7 -9 -13 -10 -18 -3 -10 17 -37 1 -58 -35 -15 -24 -29 -34 -53 -38 -19 -2 -37 -3 -41 0 -12 6 -10 43 2 43 6 0 10 -4 10 -8 0 -4 9 -8 20 -9 21 -2 27 11 10 22 -5 3 -7 12 -3 20 6 17 -17 21 -32 6 -11 -10 -133 -23 -202 -21 -23 0 -44 -4 -48 -10 -3 -5 2 -10 14 -10 11 0 23 -4 26 -10 9 -14 -29 -12 -43 2 -10 10 -15 10 -21 -1 -5 -7 -14 -10 -20 -7 -7 5 5 23 34 49 26 23 47 50 49 60 1 10 8 22 15 26 7 5 11 17 9 27 -2 14 -10 18 -29 16z m-52 -48 c14 -13 14 -17 2 -24 -17 -11 -40 7 -32 26 7 18 11 18 30 -2z m-92 -91 c16 -16 16 -17 -1 -30 -26 -19 -33 -16 -27 10 4 18 3 19 -6 7 -9 -12 -11 -11 -11 8 0 26 22 29 45 5z m60 7 c3 -5 -3 -10 -15 -10 -12 0 -18 5 -15 10 3 6 10 10 15 10 5 0 12 -4 15 -10z m-146 -55 c-23 -8 -27 -13 -17 -23 6 -6 8 -12 3 -12 -14 0 -57 48 -48 52 4 2 23 3 41 3 17 0 32 4 32 10 0 5 5 3 10 -5 7 -12 3 -17 -21 -25z m-79 11 c0 -2 -7 -7 -16 -10 -8 -3 -12 -2 -9 4 6 10 25 14 25 6z m440 -16 c0 -5 -4 -10 -10 -10 -5 0 -10 5 -10 10 0 6 5 10 10 10 6 0 10 -4 10 -10z m69 -7 c15 -13 18 -22 11 -33 -7 -11 -10 -12 -10 -2 0 8 -7 11 -17 8 -10 -3 -24 -2 -32 3 -12 8 -12 11 0 25 18 20 22 20 48 -1z m-185 -30 c3 -7 -4 -17 -15 -23 -15 -9 -21 -7 -26 5 -4 13 -14 15 -42 11 -26 -4 -31 -3 -16 4 11 5 14 9 7 9 -7 1 -10 6 -7 12 4 6 13 8 21 5 8 -3 14 -1 14 3 0 13 59 -11 64 -26z m332 2 c11 -36 7 -44 -14 -23 -9 9 -12 9 -12 0 0 -9 -8 -8 -25 4 -29 19 -31 29 -9 38 10 4 13 1 9 -7 -3 -6 0 -4 7 6 19 26 32 21 44 -18z m114 4 c0 -4 -7 -15 -16 -23 -14 -15 -11 -16 30 -16 32 0 45 4 44 13 -2 6 4 12 12 12 9 0 15 -9 15 -22 0 -28 9 -36 33 -29 14 5 19 13 16 29 -3 16 0 13 10 -8 8 -16 12 -33 10 -37 -6 -9 -50 -4 -78 7 -10 4 -21 4 -25 -1 -11 -15 -33 -15 -50 0 -11 10 -21 12 -31 6 -25 -16 -30 -11 -30 30 0 31 3 38 15 34 11 -4 15 0 15 16 0 19 2 20 15 10 8 -7 15 -16 15 -21z m-1626 -2 c7 -7 11 -18 8 -26 -3 -8 0 -11 7 -7 6 4 11 3 11 -2 0 -5 -14 -9 -30 -10 -27 -1 -30 2 -24 20 4 13 1 24 -7 29 -11 7 -10 9 4 9 10 0 24 -6 31 -13z m293 -25 c-9 -10 -17 -24 -17 -30 0 -7 -7 -12 -16 -12 -11 0 -14 5 -10 16 3 9 6 20 6 25 0 5 9 9 20 9 14 0 18 5 13 18 -5 14 -3 15 7 5 11 -10 11 -16 -3 -31z m257 6 c-8 -28 -26 -41 -35 -26 -10 16 0 36 19 41 10 3 18 5 20 6 2 0 0 -9 -4 -21z m476 7 c0 -8 -4 -15 -10 -15 -5 0 -10 7 -10 15 0 8 5 15 10 15 6 0 10 -7 10 -15z m-825 -5 c3 -5 0 -7 -9 -4 -11 4 -13 0 -9 -15 3 -11 10 -19 17 -18 6 1 11 -5 11 -13 0 -8 -11 -17 -24 -18 -18 -3 -22 0 -18 11 3 9 -1 21 -9 28 -14 12 -14 14 2 26 21 16 31 16 39 3z m210 -10 c-3 -5 -11 -10 -16 -10 -6 0 -7 5 -4 10 3 6 11 10 16 10 6 0 7 -4 4 -10z m428 -10 c3 -11 2 -20 -3 -20 -12 0 -31 26 -23 33 11 12 21 7 26 -13z m480 -7 c7 -35 -1 -43 -17 -20 -7 9 -19 17 -27 17 -10 1 -8 5 5 15 27 21 33 19 39 -12z m-413 7 c0 -5 -5 -10 -11 -10 -5 0 -7 5 -4 10 3 6 8 10 11 10 2 0 4 -4 4 -10z m-82 -41 c-5 -14 -58 -22 -58 -9 0 10 18 18 43 19 10 1 17 -4 15 -10z m392 2 c0 -6 -5 -13 -10 -16 -8 -5 -7 -11 1 -21 9 -11 8 -14 -4 -14 -17 0 -32 34 -22 50 8 13 35 13 35 1z m-150 -21 c8 -5 12 -12 8 -15 -10 -10 -49 5 -43 16 8 11 16 11 35 -1z m435 -10 c-4 -13 -2 -20 7 -21 7 0 3 -4 -9 -9 -13 -5 -23 -14 -23 -20 0 -5 -9 -10 -20 -10 -23 0 -26 10 -8 28 10 10 10 15 -2 22 -16 10 -8 14 23 11 9 -1 17 3 17 8 0 6 5 11 11 11 6 0 8 -9 4 -20z m245 5 c0 -8 5 -15 10 -15 6 0 10 -5 10 -11 0 -7 -10 -9 -27 -4 -34 8 -54 25 -30 25 9 0 17 5 17 10 0 6 5 10 10 10 6 0 10 -7 10 -15z m-1544 -4 c-4 -5 0 -11 6 -14 9 -3 7 -7 -5 -12 -10 -4 -20 -5 -23 -3 -7 8 7 38 18 38 5 0 7 -4 4 -9z m919 -1 c3 -5 -6 -25 -20 -44 -23 -30 -28 -33 -50 -22 -29 13 -32 25 -7 28 9 0 22 2 29 2 7 1 18 7 25 14 10 10 10 15 -2 22 -13 8 -13 10 2 10 9 0 20 -4 23 -10z m1069 -22 c9 -12 13 -24 10 -27 -3 -3 -8 -1 -12 5 -4 6 -15 13 -24 17 -10 3 -18 11 -18 17 0 18 28 11 44 -12z m-1564 2 c0 -5 -10 -15 -22 -21 -23 -12 -23 -12 -4 10 21 23 26 26 26 11z m70 -6 c0 -2 -7 -4 -15 -4 -8 0 -15 4 -15 10 0 5 7 7 15 4 8 -4 15 -8 15 -10z m228 -6 c-6 -18 -28 -21 -28 -4 0 9 7 16 16 16 9 0 14 -5 12 -12z m652 3 c0 -14 34 -19 83 -11 45 6 45 6 50 -24 6 -40 -6 -53 -22 -23 -11 21 -17 23 -58 17 -32 -5 -48 -3 -59 7 -16 17 -19 43 -4 43 6 0 10 -4 10 -9z m-1815 -11 c3 -5 -1 -10 -10 -10 -9 0 -13 5 -10 10 3 6 8 10 10 10 2 0 7 -4 10 -10z m2056 0 c4 0 6 -7 3 -15 -5 -12 -10 -13 -20 -4 -17 14 -34 3 -34 -24 0 -20 0 -20 14 -1 17 22 31 13 41 -28 8 -31 4 -34 -25 -15 -17 10 -26 9 -50 -5 -25 -14 -30 -15 -30 -3 0 8 7 15 15 15 17 0 20 25 5 35 -5 3 -10 10 -10 15 0 13 52 39 68 34 8 -2 18 -4 23 -4z m-1355 -12 c5 -7 2 -9 -9 -5 -14 5 -32 -16 -29 -34 1 -4 -9 -15 -21 -25 l-22 -19 19 23 c11 12 14 22 8 22 -7 0 -12 11 -12 25 0 21 5 25 29 25 17 0 33 -5 37 -12z m948 -10 c23 -32 20 -38 -15 -28 -17 5 -36 8 -42 7 -6 -1 -13 7 -15 18 -4 16 -2 17 11 7 12 -10 16 -10 21 3 8 21 22 19 40 -7z m640 7 c3 -8 1 -15 -4 -15 -6 0 -10 7 -10 15 0 8 2 15 4 15 2 0 6 -7 10 -15z m-2162 -11 c-12 -8 -20 -20 -17 -25 4 -5 1 -9 -4 -9 -14 0 -14 6 1 30 7 11 19 20 28 20 10 0 7 -5 -8 -16z m998 6 c0 -5 -2 -10 -4 -10 -3 0 -8 5 -11 10 -3 6 -1 10 4 10 6 0 11 -4 11 -10z m-694 -27 c-10 -10 -19 5 -10 18 6 11 8 11 12 0 2 -7 1 -15 -2 -18z m978 12 c3 -8 1 -15 -4 -15 -6 0 -10 7 -10 15 0 8 2 15 4 15 2 0 6 -7 10 -15z m683 9 c-3 -3 -12 -4 -19 -1 -8 3 -5 6 6 6 11 1 17 -2 13 -5z m247 -10 c4 -11 1 -14 -11 -12 -9 2 -18 9 -21 16 -6 18 25 15 32 -4z m106 0 c0 -1 -11 -15 -25 -30 -19 -20 -31 -25 -55 -22 -17 3 -33 1 -36 -4 -3 -5 -12 -4 -20 3 -7 6 -11 15 -8 21 3 5 11 4 19 -2 10 -9 16 -6 25 10 14 25 44 38 77 32 12 -2 23 -6 23 -8z m-1570 -14 c0 -11 -4 -20 -10 -20 -5 0 -10 9 -10 20 0 11 5 20 10 20 6 0 10 -9 10 -20z m418 -4 c3 -12 -1 -17 -10 -14 -7 3 -15 13 -16 22 -3 12 1 17 10 14 7 -3 15 -13 16 -22z m842 20 c0 -3 -4 -8 -10 -11 -5 -3 -10 -1 -10 4 0 6 5 11 10 11 6 0 10 -2 10 -4z m-1297 -33 c3 -16 0 -31 -6 -35 -18 -12 -27 -9 -27 7 0 8 5 15 11 15 6 0 9 9 6 20 -3 11 -2 20 3 20 4 0 10 -12 13 -27z m967 17 c0 -5 -4 -10 -10 -10 -5 0 -10 5 -10 10 0 6 5 10 10 10 6 0 10 -4 10 -10z m346 -17 c-10 -10 -19 5 -10 18 6 11 8 11 12 0 2 -7 1 -15 -2 -18z m74 18 c0 -5 -7 -14 -15 -21 -16 -14 -18 -10 -9 14 6 17 24 22 24 7z m-1830 -28 c0 -20 -24 -11 -28 10 -2 12 1 15 12 11 9 -3 16 -13 16 -21z m555 17 c3 -5 -3 -10 -15 -10 -12 0 -18 5 -15 10 3 6 10 10 15 10 5 0 12 -4 15 -10z m-152 -30 c-3 -11 -10 -20 -15 -20 -6 0 -7 7 -4 16 3 9 6 20 6 25 0 6 4 8 9 5 5 -3 7 -15 4 -26z m257 20 c0 -5 -4 -10 -10 -10 -5 0 -10 5 -10 10 0 6 5 10 10 10 6 0 10 -4 10 -10z m71 -6 c12 -14 11 -16 -5 -13 -11 2 -21 10 -24 17 -5 17 13 15 29 -4z m1359 -15 c0 -5 -7 -17 -16 -27 -13 -16 -20 -17 -40 -8 -28 13 -32 36 -5 36 10 0 22 7 25 16 5 13 9 14 21 4 8 -7 15 -16 15 -21z m-1890 -11 c0 -16 -30 -8 -40 12 -10 18 -9 19 15 8 14 -6 25 -15 25 -20z m329 5 c2 -2 -5 -3 -17 -3 -14 0 -22 6 -22 16 0 14 3 15 18 3 9 -7 19 -15 21 -16z m608 1 c-9 -9 -28 6 -21 18 4 6 10 6 17 -1 6 -6 8 -13 4 -17z m143 -24 c0 -19 -5 -30 -14 -30 -17 0 -27 47 -12 54 22 9 26 5 26 -24z m420 9 c0 -5 -4 -9 -10 -9 -5 0 -10 7 -10 16 0 8 5 12 10 9 6 -3 10 -10 10 -16z m114 -4 c-4 -8 -12 -15 -20 -15 -17 0 -18 17 -1 23 22 9 27 7 21 -8z m172 -9 c3 -8 1 -23 -4 -33 -10 -16 -12 -15 -21 10 -14 36 -14 37 4 37 9 0 18 -6 21 -14z m-2733 -31 c27 -56 20 -85 -10 -47 -30 38 -38 82 -14 82 4 0 15 -16 24 -35z m1959 23 c-9 -9 -15 -9 -24 0 -9 9 -7 12 12 12 19 0 21 -3 12 -12z m376 -8 c3 -9 0 -10 -9 -4 -11 6 -12 5 -2 -7 15 -18 0 -39 -28 -39 -28 0 -30 15 -7 44 23 27 38 30 46 6z m333 -3 c-6 -6 -18 -12 -27 -13 -14 -2 -14 0 1 17 10 10 22 16 27 13 6 -4 6 -10 -1 -17z m-168 -12 c-3 -8 -9 -15 -14 -15 -10 0 -12 24 -3 33 11 11 24 -3 17 -18z m-1103 6 c0 -8 -48 -30 -54 -24 -2 3 -2 11 0 18 5 12 54 18 54 6z m1040 -1 c0 -5 8 -6 18 -3 15 6 15 5 4 -10 -12 -14 -16 -14 -28 -2 -16 16 -18 25 -4 25 6 0 10 -4 10 -10z m-2255 -10 c3 -5 1 -10 -4 -10 -6 0 -11 5 -11 10 0 6 2 10 4 10 3 0 8 -4 11 -10z m1438 -9 c3 -11 3 -22 0 -25 -8 -8 -53 25 -47 35 10 16 42 9 47 -10z m353 -7 c-5 -14 -9 -15 -19 -5 -9 9 -9 14 3 21 18 11 24 6 16 -16z m184 -5 c0 -5 -12 -9 -27 -9 -27 1 -27 1 -9 15 19 14 36 12 36 -6z m236 -23 c-19 -37 -28 -37 -31 1 -2 23 2 33 14 36 26 6 33 -8 17 -37z m304 19 c0 -18 -5 -25 -20 -25 -25 0 -26 25 -2 39 23 14 22 14 22 -14z m-2140 -10 c6 -15 6 -34 1 -47 -8 -21 -10 -21 -16 -5 -6 13 -14 17 -31 13 -17 -5 -26 -1 -35 16 -11 21 -11 22 4 9 11 -9 17 -10 17 -2 0 6 9 11 19 11 26 0 36 17 14 23 -17 4 -17 5 0 6 10 1 21 -9 27 -24z m880 14 c0 -5 -4 -7 -10 -4 -6 4 -10 -5 -10 -19 0 -29 -3 -30 -31 -15 -22 11 -17 26 15 39 29 12 36 12 36 -1z m440 2 c0 -5 6 -11 13 -14 6 -2 4 -3 -5 -2 -10 2 -37 -3 -60 -10 -24 -8 -37 -14 -30 -14 22 -1 4 -18 -24 -24 -16 -3 -27 0 -31 9 -6 16 23 48 36 40 5 -3 11 1 15 9 6 17 86 22 86 6z m734 -21 c17 -35 5 -40 -32 -14 -18 13 -21 19 -11 30 17 21 26 17 43 -16z m-394 -21 c0 -4 -6 -9 -14 -12 -15 -6 -29 29 -19 46 6 10 33 -19 33 -34z m420 37 c0 -3 -4 -8 -10 -11 -5 -3 -10 -1 -10 4 0 6 5 11 10 11 6 0 10 -2 10 -4z m502 -21 c-2 -14 -11 -25 -18 -25 -8 0 -14 -4 -14 -10 0 -5 -7 -10 -15 -10 -8 0 -15 5 -15 10 0 6 5 10 10 10 6 0 9 5 8 12 -2 8 33 36 48 38 1 0 -1 -11 -4 -25z m-1599 4 c25 -11 47 -47 47 -74 0 -20 -16 -19 -24 0 -3 8 -13 15 -22 15 -11 0 -15 6 -11 20 6 25 -18 27 -32 3 -9 -16 -10 -14 -11 9 0 14 -6 29 -12 31 -7 3 -1 6 14 6 15 1 38 -4 51 -10z m871 -42 c-14 -26 -30 -47 -35 -47 -14 0 -11 18 5 27 7 4 21 23 30 41 10 19 19 32 22 29 2 -2 -7 -25 -22 -50z m-299 27 c19 5 33 2 46 -10 25 -23 25 -64 0 -64 -14 0 -18 5 -14 20 4 13 0 20 -9 20 -26 0 -68 25 -68 40 0 12 2 13 9 1 6 -9 18 -12 36 -7z m195 5 c0 -6 -35 -19 -52 -19 -4 0 -5 6 -2 14 5 13 54 18 54 5z m-676 -54 c7 -27 0 -49 -13 -41 -11 7 -12 66 -1 66 4 0 11 -11 14 -25z m596 15 c0 -5 -4 -10 -10 -10 -5 0 -10 5 -10 10 0 6 5 10 10 10 6 0 10 -4 10 -10z m-1305 -10 c3 -5 -1 -10 -9 -10 -9 0 -16 5 -16 10 0 6 4 10 9 10 6 0 13 -4 16 -10z m330 0 c3 -5 3 -15 0 -20 -7 -12 -45 5 -45 20 0 13 37 13 45 0z m-1185 -14 c0 -17 -14 -29 -23 -20 -8 8 3 34 14 34 5 0 9 -6 9 -14z m1972 -11 c13 -28 8 -38 -14 -30 -16 7 -22 55 -7 55 5 0 15 -11 21 -25z m745 -12 c-3 -3 -11 -2 -17 2 -8 5 -7 11 2 22 12 15 13 14 16 -1 2 -10 1 -20 -1 -23z m-2157 17 c0 -5 -4 -10 -10 -10 -5 0 -10 5 -10 10 0 6 5 10 10 10 6 0 10 -4 10 -10z m1134 1 c9 -15 -23 -36 -36 -23 -5 5 -7 15 -4 21 9 13 33 14 40 2z m476 -11 c0 -5 -4 -10 -10 -10 -5 0 -10 5 -10 10 0 6 5 10 10 10 6 0 10 -4 10 -10z m-1070 -10 c0 -5 -5 -10 -11 -10 -5 0 -7 5 -4 10 3 6 8 10 11 10 2 0 4 -4 4 -10z m823 -31 c-26 -9 -43 0 -43 23 0 19 1 19 30 1 26 -15 28 -19 13 -24z m209 9 c-9 -9 -17 -8 -34 1 -13 6 -15 10 -6 7 9 -3 19 2 23 11 4 13 8 14 17 5 9 -9 9 -15 0 -24z m216 14 c2 -7 -2 -10 -12 -6 -9 3 -16 11 -16 16 0 13 23 5 28 -10z m167 -4 c14 -12 25 -30 25 -41 0 -16 -5 -18 -25 -13 -14 4 -35 2 -46 -5 -18 -9 -20 -8 -17 8 2 10 9 18 16 18 20 0 33 27 20 42 -17 21 -1 15 27 -9z m68 -3 c-7 -19 -17 -19 -34 1 -12 15 -11 16 10 9 18 -5 22 -4 16 5 -5 8 -4 11 3 6 6 -4 9 -13 5 -21z m181 10 c3 -8 1 -15 -4 -15 -6 0 -10 7 -10 15 0 8 2 15 4 15 2 0 6 -7 10 -15z m181 5 c-3 -5 -11 -10 -16 -10 -6 0 -7 5 -4 10 3 6 11 10 16 10 6 0 7 -4 4 -10z m-2036 -21 c-16 -10 -23 -4 -14 10 3 6 11 8 17 5 6 -4 5 -9 -3 -15z m265 5 c4 -10 1 -14 -6 -12 -15 5 -23 28 -10 28 5 0 13 -7 16 -16z m1236 -5 c0 -6 -4 -7 -10 -4 -5 3 -10 11 -10 16 0 6 5 7 10 4 6 -3 10 -11 10 -16z m314 -4 c-4 -8 -18 -15 -33 -15 l-26 1 25 14 c32 18 41 18 34 0z m-2686 -1 c31 -9 28 -21 -8 -29 -37 -8 -55 1 -39 21 13 16 15 16 47 8z m1610 -6 c17 -17 15 -31 -5 -24 -9 4 -20 1 -24 -5 -10 -16 -39 -4 -39 16 0 12 6 15 21 10 15 -5 19 -4 15 4 -10 15 17 14 32 -1z m-178 -45 c0 -16 -32 -17 -48 -1 -8 8 -8 17 -1 30 10 19 12 19 30 2 10 -9 19 -23 19 -31z m-752 20 c-4 -22 -22 -20 -26 1 -2 10 3 16 13 16 10 0 15 -7 13 -17z m212 -3 c0 -24 -6 -25 -25 -6 -15 15 -10 26 12 26 7 0 13 -9 13 -20z m1055 -21 c-4 -5 -1 -9 4 -9 6 0 11 -7 11 -15 0 -30 -27 -15 -28 15 0 17 4 28 9 24 5 -3 7 -10 4 -15z m259 13 c2 -4 -4 -13 -14 -20 -14 -8 -21 -8 -26 -1 -4 6 0 15 7 20 18 11 26 11 33 1z m446 -2 c0 -5 -7 -7 -15 -4 -8 4 -15 8 -15 10 0 2 7 4 15 4 8 0 15 -4 15 -10z m-577 -28 c-3 -9 -10 -22 -15 -29 -13 -16 -2 -32 28 -43 32 -13 32 -34 -1 -26 -15 4 -25 2 -25 -5 0 -5 -10 -9 -22 -7 -17 2 -24 11 -26 31 -2 15 1 27 7 27 18 0 13 42 -6 55 -16 12 -15 13 9 8 14 -3 29 0 33 6 10 17 25 3 18 -17z m261 12 c3 -9 3 -21 -1 -27 -4 -7 1 -6 10 2 15 12 17 11 17 -13 0 -29 14 -34 28 -10 8 15 10 15 15 0 4 -10 -1 -23 -13 -33 -17 -15 -17 -18 -4 -28 13 -9 12 -13 -10 -25 -33 -17 -41 -9 -27 31 12 36 8 49 -18 49 -18 0 -35 45 -24 62 7 13 20 9 27 -8z m220 -11 c-9 -38 -13 -41 -30 -19 -12 17 -11 21 9 32 12 6 23 12 25 13 1 1 -1 -11 -4 -26z m96 -8 c0 -12 -29 -3 -34 10 -4 13 -2 14 14 5 11 -6 20 -13 20 -15z m-1038 -7 c-7 -7 -12 -8 -12 -2 0 6 3 14 7 17 3 4 9 5 12 2 2 -3 -1 -11 -7 -17z m262 16 c25 -9 19 -24 -9 -24 -24 0 -32 10 -18 23 8 8 8 8 27 1z m966 -46 c-33 -27 -50 -23 -50 12 0 17 5 30 10 30 6 0 10 -4 10 -10 0 -17 27 -11 35 8 7 16 8 15 13 -3 3 -12 -4 -26 -18 -37z m-1855 31 c4 -6 13 -8 20 -5 15 5 15 -30 0 -54 -6 -10 -4 -12 8 -7 10 3 17 2 17 -3 0 -6 -4 -10 -10 -10 -5 0 -10 -5 -10 -11 0 -5 5 -7 11 -3 7 4 10 1 7 -7 -9 -27 -39 -22 -50 9 -8 21 -20 32 -40 36 -31 6 -47 31 -30 48 7 7 20 6 41 -5 32 -16 44 -6 14 12 -17 10 -17 10 -1 11 9 0 20 -5 23 -11z m335 1 c0 8 3 11 6 7 4 -3 4 -13 0 -22 -4 -13 -10 -14 -26 -5 -11 6 -18 15 -14 21 4 6 11 6 20 -2 11 -9 14 -9 14 1z m-670 -25 c0 -8 -4 -16 -9 -19 -12 -8 -34 21 -27 33 9 14 36 2 36 -14z m621 -7 c11 -22 11 -22 -6 -8 -10 8 -28 14 -39 13 -20 -3 -21 -2 -1 6 30 14 33 13 46 -11z m1422 7 c4 -8 2 -17 -2 -20 -5 -2 -11 4 -14 15 -6 23 8 27 16 5z m-1053 -11 c0 -10 6 -14 15 -10 8 3 15 1 15 -4 0 -6 -8 -10 -17 -11 -14 0 -13 -2 4 -9 22 -9 23 -40 2 -40 -5 0 -9 -8 -9 -17 0 -28 -18 -1 -22 32 -2 20 -9 31 -23 34 -17 3 -18 1 -6 -13 21 -25 0 -43 -34 -28 -30 14 -33 32 -4 32 11 0 18 4 15 9 -3 5 1 14 9 21 8 7 15 9 15 4 0 -4 5 -3 12 4 17 17 28 15 28 -4z m75 6 c-3 -5 -10 -10 -16 -10 -5 0 -9 5 -9 10 0 6 7 10 16 10 8 0 12 -4 9 -10z m-460 -38 c3 -8 2 -19 -3 -24 -15 -15 -42 3 -42 27 0 18 4 22 19 18 11 -3 22 -12 26 -21z m675 18 c0 -12 -35 -31 -44 -23 -8 9 14 33 30 33 8 0 14 -4 14 -10z m605 0 c3 -5 1 -10 -4 -10 -6 0 -11 5 -11 10 0 6 2 10 4 10 3 0 8 -4 11 -10z m580 0 c3 -5 2 -10 -4 -10 -5 0 -18 -3 -28 -7 -16 -6 -16 -5 -4 10 15 19 27 22 36 7z m-337 -30 c2 -14 11 -33 20 -43 20 -22 2 -48 -21 -29 -8 7 -17 9 -20 5 -4 -3 -9 2 -13 11 -3 9 -12 16 -20 16 -18 0 -18 6 3 41 21 35 47 34 51 -1z m-338 10 c0 -5 -4 -10 -10 -10 -5 0 -10 5 -10 10 0 6 5 10 10 10 6 0 10 -4 10 -10z m166 -27 c-10 -10 -19 5 -10 18 6 11 8 11 12 0 2 -7 1 -15 -2 -18z m-2956 -21 c0 -7 -4 -10 -10 -7 -5 3 -10 16 -10 28 0 18 2 19 10 7 5 -8 10 -21 10 -28z m2216 2 c-5 -13 -10 -14 -18 -6 -6 6 -8 18 -4 28 5 13 10 14 18 6 6 -6 8 -18 4 -28z m624 27 c0 -11 -26 -22 -34 -14 -12 12 -5 23 14 23 11 0 20 -4 20 -9z m-490 -15 c0 -18 -19 -31 -28 -21 -4 4 -1 10 6 12 6 3 10 9 6 14 -3 5 0 9 5 9 6 0 11 -6 11 -14z m-930 -6 c0 -5 -5 -10 -11 -10 -5 0 -7 5 -4 10 3 6 8 10 11 10 2 0 4 -4 4 -10z m220 -11 c0 -6 -4 -7 -10 -4 -5 3 -10 11 -10 16 0 6 5 7 10 4 6 -3 10 -11 10 -16z m1747 4 c49 -44 49 -104 0 -102 -20 1 -20 1 3 8 24 7 24 7 3 13 -16 4 -20 11 -16 27 5 19 3 20 -18 12 -18 -6 -23 -15 -20 -32 3 -24 3 -24 -18 -5 -12 11 -21 27 -21 36 0 20 30 36 30 17 0 -7 7 -3 16 8 13 18 13 20 -3 27 -16 6 -15 7 3 7 12 1 30 -7 41 -16z m-1107 -13 c0 -13 -28 -25 -38 -16 -3 4 0 11 8 16 20 13 30 12 30 0z m1424 -3 c11 -10 10 -15 -1 -26 -8 -7 -20 -10 -28 -7 -10 3 -17 -5 -23 -26 -7 -28 -42 -50 -42 -27 0 5 5 9 10 9 6 0 10 5 10 10 0 6 -8 10 -17 10 -15 0 -14 2 3 16 13 11 15 17 6 20 -6 3 -9 10 -6 15 3 6 11 5 20 -2 12 -10 18 -9 32 4 20 20 20 20 36 4z m-1524 -32 c-7 -8 -8 -15 -2 -15 5 0 15 7 22 15 18 22 23 12 9 -19 -15 -33 -22 -33 -44 0 -13 20 -14 28 -4 40 8 10 15 12 22 5 7 -7 6 -15 -3 -26z m289 21 c7 -8 8 -16 4 -19 -11 -7 -45 18 -36 26 10 11 19 8 32 -7z m-789 -3 c0 -10 -20 -40 -20 -31 0 3 -3 13 -6 22 -4 11 -1 16 10 16 9 0 16 -3 16 -7z m1884 -20 c9 -22 -10 -41 -25 -26 -13 13 -5 43 10 43 5 0 12 -8 15 -17z m-910 -25 c-3 -4 0 -8 5 -8 6 0 10 -5 9 -12 -2 -7 4 -12 12 -13 24 0 25 -35 1 -35 -14 0 -21 6 -21 20 0 11 -4 20 -9 20 -11 0 -19 30 -13 49 4 11 6 11 13 0 4 -7 5 -17 3 -21z m-579 12 c3 -5 -3 -10 -14 -10 -11 0 -23 5 -26 10 -3 6 3 10 14 10 11 0 23 -4 26 -10z m295 0 c0 -5 -2 -10 -4 -10 -3 0 -8 5 -11 10 -3 6 -1 10 4 10 6 0 11 -4 11 -10z m250 -10 c0 -5 -2 -10 -4 -10 -3 0 -8 5 -11 10 -3 6 -1 10 4 10 6 0 11 -4 11 -10z m-156 -31 c-8 -13 -24 -1 -24 18 0 13 3 13 15 3 8 -7 12 -16 9 -21z m481 22 c3 -5 1 -12 -5 -16 -6 -4 -8 -10 -5 -15 3 -4 -2 -10 -9 -13 -11 -4 -14 1 -11 21 1 15 3 28 4 30 3 6 20 1 26 -7z m215 -32 c0 -15 -5 -20 -22 -17 -20 3 -33 32 -22 50 9 14 44 -12 44 -33z m-1167 21 c18 0 19 -2 7 -10 -19 -12 -80 -13 -80 -1 0 12 21 21 38 15 8 -2 23 -4 35 -4z m974 -12 c-3 -8 -6 -5 -6 6 -1 11 2 17 5 13 3 -3 4 -12 1 -19z m-892 2 c-3 -5 -10 -10 -16 -10 -5 0 -9 5 -9 10 0 6 7 10 16 10 8 0 12 -4 9 -10z m430 0 c3 -5 1 -10 -4 -10 -6 0 -11 5 -11 10 0 6 2 10 4 10 3 0 8 -4 11 -10z m1263 -16 c-7 -15 -14 -21 -16 -15 -5 16 5 41 17 41 7 0 6 -10 -1 -26z m-892 1 c-23 -17 -36 -19 -36 -6 0 5 8 12 18 14 32 9 37 6 18 -8z m828 -1 c8 -21 8 -21 -9 -28 -11 -4 -15 1 -15 19 0 28 15 33 24 9z m-3377 -17 c17 0 16 -14 -1 -20 -7 -3 -23 1 -34 9 -15 10 -23 11 -28 3 -3 -6 0 -15 7 -20 11 -7 10 -9 -4 -9 -23 0 -34 29 -16 41 8 4 25 5 39 2 13 -4 30 -6 37 -6z m1613 3 c8 -5 11 -12 7 -16 -4 -4 -15 0 -24 9 -18 18 -8 23 17 7z m-2010 -10 c0 -5 -4 -10 -10 -10 -5 0 -10 5 -10 10 0 6 5 10 10 10 6 0 10 -4 10 -10z m2070 -21 c0 -23 -4 -24 -24 -3 -22 21 -20 33 4 27 11 -3 20 -14 20 -24z m-2330 11 c0 -5 -4 -10 -10 -10 -5 0 -10 5 -10 10 0 6 5 10 10 10 6 0 10 -4 10 -10z m2660 0 c0 -5 -4 -10 -9 -10 -6 0 -13 5 -16 10 -3 6 1 10 9 10 9 0 16 -4 16 -10z m200 6 c0 -3 -4 -8 -10 -11 -5 -3 -10 -1 -10 4 0 6 5 11 10 11 6 0 10 -2 10 -4z m40 -2 c0 -3 -7 -12 -15 -20 -11 -12 -12 -20 -5 -35 6 -10 8 -20 5 -20 -3 -1 -9 -2 -14 -3 -5 0 -13 -4 -17 -8 -4 -5 -17 -8 -28 -8 -20 1 -20 2 -3 14 9 7 17 16 17 20 0 11 43 66 52 66 4 0 8 -3 8 -6z m1054 -14 c9 -9 0 -30 -14 -30 -12 0 -40 29 -40 41 0 11 39 3 54 -11z m-3874 6 c0 -3 -4 -8 -10 -11 -5 -3 -10 -1 -10 4 0 6 5 11 10 11 6 0 10 -2 10 -4z m2960 -17 c0 -6 -4 -7 -10 -4 -5 3 -10 11 -10 16 0 6 5 7 10 4 6 -3 10 -11 10 -16z m436 5 c-24 -17 -56 -18 -56 -1 0 7 15 13 38 14 34 2 36 1 18 -13z m-1391 -4 c3 -5 -3 -10 -14 -10 -12 0 -21 5 -21 10 0 6 6 10 14 10 8 0 18 -4 21 -10z m1328 -10 c19 -22 24 -41 6 -23 -6 6 -18 9 -25 6 -9 -3 -14 2 -14 16 0 26 11 27 33 1z m604 -14 c-6 -15 -87 -39 -87 -26 0 5 9 12 20 15 11 3 20 10 20 15 0 5 7 7 15 4 9 -4 18 1 22 12 4 11 8 13 11 6 2 -7 2 -19 -1 -26z m-292 3 c4 -13 2 -25 -4 -29 -7 -4 -11 -13 -9 -21 2 -8 -4 -14 -12 -14 -8 0 -16 10 -18 23 -2 12 1 22 7 22 6 0 11 9 11 20 0 26 17 26 25 -1z m-1363 -21 c-9 -9 -12 -7 -12 12 0 19 3 21 12 12 9 -9 9 -15 0 -24z m385 -14 c-3 -19 -2 -34 4 -34 5 0 9 6 9 14 0 7 7 19 15 26 9 8 15 9 15 2 0 -6 -5 -14 -12 -18 -8 -5 -6 -10 8 -15 16 -6 11 -11 -29 -29 -49 -22 -68 -21 -50 2 13 16 27 68 24 87 -1 8 2 10 9 6 8 -5 10 -21 7 -41z m203 36 c0 -5 -4 -10 -9 -10 -6 0 -13 5 -16 10 -3 6 1 10 9 10 9 0 16 -4 16 -10z m168 -35 c-2 -10 -7 -12 -18 -5 -13 9 -13 11 0 20 11 7 11 10 2 10 -7 0 -10 5 -6 11 9 14 27 -15 22 -36z m-558 26 c29 -8 18 -17 -25 -22 -22 -3 -31 0 -33 14 -4 18 13 21 58 8z m-155 -11 c3 -6 0 -17 -9 -25 -20 -21 -24 -19 -18 10 5 26 16 32 27 15z m894 -16 c-13 -14 -25 -20 -27 -14 -7 20 7 40 29 40 l22 0 -24 -26z m-2745 0 c13 -33 6 -49 -9 -20 -18 33 -18 36 -6 36 5 0 12 -7 15 -16z m1736 -27 c0 -6 -9 -2 -20 8 -11 10 -20 23 -20 28 0 6 9 2 20 -8 11 -10 20 -23 20 -28z m1505 13 c3 -5 1 -10 -4 -10 -6 0 -11 5 -11 10 0 6 2 10 4 10 3 0 8 -4 11 -10z m-3665 -37 c0 -23 -31 -28 -47 -7 -11 15 -17 17 -33 6 -11 -6 -28 -12 -37 -12 -15 0 -13 4 7 20 43 33 110 29 110 -7z m2940 30 c-1 -19 -18 -33 -34 -27 -15 6 -14 8 6 19 29 17 28 16 28 8z m486 -4 c3 -6 -1 -18 -11 -27 -13 -13 -19 -14 -22 -4 -3 6 -13 12 -24 12 -10 0 -19 5 -19 10 0 6 11 8 25 4 15 -4 25 -2 25 5 0 14 17 14 26 0z m-1016 -25 c0 -14 -21 -19 -33 -7 -9 9 13 34 24 27 5 -3 9 -12 9 -20z m-1164 -30 c-3 -8 -10 -12 -16 -9 -6 4 -7 12 -3 18 4 7 8 15 9 20 4 19 7 21 11 4 3 -10 2 -25 -1 -33z m124 36 c0 -5 -4 -10 -9 -10 -6 0 -13 5 -16 10 -3 6 1 10 9 10 9 0 16 -4 16 -10z m1487 -36 c-9 -10 -38 16 -31 28 4 6 13 4 22 -6 9 -8 13 -19 9 -22z m508 26 c17 -7 15 -9 -12 -9 -18 -1 -33 4 -33 9 0 12 17 12 45 0z m525 1 c0 -15 -46 -57 -58 -53 -17 5 -15 22 6 43 18 19 52 25 52 10z m68 -20 c4 -28 -13 -20 -21 9 -3 14 -1 20 6 17 7 -2 14 -14 15 -26z m-4148 15 c0 -2 -7 -9 -15 -16 -12 -10 -15 -10 -15 4 0 9 7 16 15 16 8 0 15 -2 15 -4z m3388 -25 c-8 -12 -18 -18 -22 -14 -4 4 -4 0 0 -10 4 -11 1 -17 -8 -17 -22 0 -29 12 -17 27 6 7 8 13 3 13 -5 1 5 7 21 14 37 16 41 13 23 -13z m-935 9 c22 0 22 -17 -1 -29 -13 -7 -23 -3 -42 17 l-25 25 25 -6 c14 -4 33 -7 43 -7z m-889 -7 c4 -4 15 -8 24 -8 11 0 18 -10 20 -27 2 -16 -1 -28 -7 -28 -6 0 -12 -10 -12 -22 l-2 -23 -4 23 c-2 12 -11 22 -20 22 -9 0 -13 -6 -10 -14 11 -27 -7 -26 -24 2 -20 35 -15 82 10 82 10 0 21 -3 25 -7z m1872 -19 c-5 -14 -9 -15 -19 -5 -9 9 -9 14 3 21 18 11 24 6 16 -16z m114 17 c0 -6 -4 -13 -10 -16 -5 -3 -10 1 -10 9 0 9 5 16 10 16 6 0 10 -4 10 -9z m70 -27 c0 -31 -2 -35 -15 -24 -16 13 -20 42 -8 53 15 15 23 5 23 -29z m620 17 c0 -11 -4 -22 -9 -25 -11 -7 -20 14 -13 32 7 19 22 14 22 -7z m-4195 -11 c10 -11 26 -20 37 -20 25 0 23 -16 -4 -23 -22 -6 -47 15 -48 40 0 6 -8 14 -17 16 -15 4 -15 5 -2 6 9 0 24 -8 34 -19z m1971 -15 c-5 -21 -10 -24 -20 -16 -7 6 -21 9 -30 5 -30 -12 -16 13 16 29 39 19 43 16 34 -18z m199 15 c3 -5 1 -10 -4 -10 -6 0 -11 5 -11 10 0 6 2 10 4 10 3 0 8 -4 11 -10z m555 0 c0 -5 -7 -10 -15 -10 -8 0 -15 5 -15 10 0 6 7 10 15 10 8 0 15 -4 15 -10z m250 1 c0 -12 -20 -25 -27 -18 -7 7 6 27 18 27 5 0 9 -4 9 -9z m1051 -25 c-6 -7 -8 -21 -5 -31 5 -13 2 -16 -12 -13 -23 4 -21 31 4 56 19 20 30 9 13 -12z m-3556 -3 c-24 -17 -35 -17 -35 0 0 20 9 25 32 19 20 -5 20 -6 3 -19z m3235 23 c0 -3 -4 -8 -10 -11 -5 -3 -10 -1 -10 4 0 6 5 11 10 11 6 0 10 -2 10 -4z m435 -6 c3 -5 1 -10 -4 -10 -6 0 -11 5 -11 10 0 6 2 10 4 10 3 0 8 -4 11 -10z m-1557 -12 c-2 -6 -10 -14 -16 -16 -7 -2 -10 2 -6 12 7 18 28 22 22 4z m569 6 c-3 -3 -12 -4 -19 -1 -8 3 -5 6 6 6 11 1 17 -2 13 -5z m803 -41 c0 -45 -1 -46 -19 -29 -16 15 -20 42 -12 74 1 1 8 2 16 2 11 0 15 -12 15 -47z m-765 27 c3 -5 2 -10 -4 -10 -5 0 -13 5 -16 10 -3 6 -2 10 4 10 5 0 13 -4 16 -10z m555 6 c0 -3 -4 -8 -10 -11 -5 -3 -10 -1 -10 4 0 6 5 11 10 11 6 0 10 -2 10 -4z m-3790 -16 c0 -5 -5 -10 -11 -10 -5 0 -7 5 -4 10 3 6 8 10 11 10 2 0 4 -4 4 -10z m2321 -11 c7 -14 17 -19 30 -16 13 4 19 0 19 -12 0 -10 -3 -20 -6 -24 -10 -10 -34 4 -34 20 0 11 -7 13 -29 8 -21 -4 -30 -2 -34 9 -4 10 -1 16 8 16 8 0 15 5 15 10 0 18 19 11 31 -11z m512 -11 c-10 -11 -19 -15 -21 -8 -5 15 18 41 30 34 5 -3 1 -15 -9 -26z m125 15 c-2 -10 -10 -17 -16 -15 -7 1 -12 -5 -12 -13 0 -8 -9 -15 -19 -15 -18 0 -19 2 -5 30 17 33 58 43 52 13z m1262 13 c0 -3 -4 -8 -10 -11 -5 -3 -10 -1 -10 4 0 6 5 11 10 11 6 0 10 -2 10 -4z m-1803 -12 c-3 -3 -12 -4 -19 -1 -8 3 -5 6 6 6 11 1 17 -2 13 -5z m753 -4 c0 -5 -4 -10 -10 -10 -5 0 -10 5 -10 10 0 6 5 10 10 10 6 0 10 -4 10 -10z m735 0 c3 -5 1 -10 -4 -10 -6 0 -11 5 -11 10 0 6 2 10 4 10 3 0 8 -4 11 -10z m-1914 -37 c-17 -13 -41 -17 -41 -6 0 3 7 14 16 24 12 14 19 15 29 6 10 -9 9 -14 -4 -24z m194 27 c3 -5 2 -10 -4 -10 -5 0 -13 5 -16 10 -3 6 -2 10 4 10 5 0 13 -4 16 -10z m800 0 c3 -5 1 -10 -4 -10 -6 0 -11 5 -11 10 0 6 2 10 4 10 3 0 8 -4 11 -10z m815 -20 c-18 -11 -22 -7 -14 14 5 13 10 14 18 6 8 -8 7 -13 -4 -20z m-1640 -36 c0 -7 5 -14 11 -16 9 -3 9 -10 0 -26 -8 -14 -8 -22 -1 -22 5 0 10 -7 10 -16 0 -14 -2 -14 -15 0 -8 8 -15 24 -15 35 0 11 -4 23 -10 26 -5 3 -10 1 -10 -6 0 -7 -3 -10 -6 -6 -3 3 -2 12 2 19 5 7 7 24 6 38 -3 24 -2 24 13 6 8 -11 15 -25 15 -32z m1328 24 c-6 -18 -28 -21 -28 -4 0 9 7 16 16 16 9 0 14 -5 12 -12z m-1207 -30 c10 -24 10 -33 1 -36 -7 -2 -9 -8 -6 -14 4 -5 -6 -2 -21 8 -26 17 -27 18 -6 26 24 8 26 19 9 36 -8 8 -8 12 -1 12 6 0 17 -14 24 -32z m929 28 c0 -3 -4 -8 -10 -11 -5 -3 -10 -1 -10 4 0 6 5 11 10 11 6 0 10 -2 10 -4z m-666 -21 c-4 -8 -8 -15 -10 -15 -2 0 -4 7 -4 15 0 8 4 15 10 15 5 0 7 -7 4 -15z m837 6 c7 11 9 11 9 -4 0 -20 -32 -37 -37 -20 -2 6 -17 9 -34 6 -16 -2 -29 0 -29 6 0 14 32 19 58 7 18 -7 26 -6 33 5z m277 1 c19 -13 27 -66 9 -59 -8 3 -19 1 -25 -5 -7 -7 -10 -2 -9 16 1 16 7 24 15 21 16 -6 15 0 -4 19 -16 17 -8 21 14 8z m-1084 -17 c-4 -8 -11 -15 -17 -15 -7 0 -7 -4 1 -12 15 -15 16 -28 2 -28 -20 0 -22 31 -5 50 22 24 26 25 19 5z m350 0 c-4 -8 -8 -15 -10 -15 -2 0 -4 7 -4 15 0 8 4 15 10 15 5 0 7 -7 4 -15z m-2782 -10 c0 -5 -5 -11 -11 -13 -6 -2 -11 4 -11 13 0 9 5 15 11 13 6 -2 11 -8 11 -13z m3119 -12 c-12 -20 -14 -14 -5 12 4 9 9 14 11 11 3 -2 0 -13 -6 -23z m-2921 -3 c0 -15 -7 -20 -25 -20 -14 0 -25 -4 -25 -10 0 -15 -58 -42 -65 -30 -3 6 -1 10 4 10 6 0 11 9 11 20 0 12 6 20 13 19 19 -2 57 12 57 22 0 5 7 9 15 9 8 0 15 -9 15 -20z m2453 0 c-3 -11 -6 -20 -8 -20 -1 0 -10 9 -20 20 -18 20 -17 20 8 20 20 0 24 -4 20 -20z m-773 0 c0 -5 -4 -10 -10 -10 -5 0 -10 5 -10 10 0 6 5 10 10 10 6 0 10 -4 10 -10z m1331 -1 c11 -5 17 -14 14 -20 -9 -14 -19 -11 -33 11 -14 23 -10 25 19 9z m-421 -9 c0 -5 -5 -10 -11 -10 -5 0 -7 5 -4 10 3 6 8 10 11 10 2 0 4 -4 4 -10z m-2994 -13 c4 -4 -7 -7 -25 -7 -18 0 -30 4 -27 8 6 10 42 9 52 -1z m2614 -28 c0 -17 -36 4 -37 23 -2 19 -1 19 18 3 10 -10 19 -21 19 -26z m180 37 c0 -3 -4 -8 -10 -11 -5 -3 -10 -1 -10 4 0 6 5 11 10 11 6 0 10 -2 10 -4z m591 -6 c5 0 9 -4 9 -10 0 -14 -13 -12 -36 6 -17 14 -17 15 -1 10 10 -3 23 -6 28 -6z m559 -32 c-30 -28 -38 -14 -9 16 13 14 26 20 28 15 2 -6 -7 -20 -19 -31z m-860 22 c0 -5 -2 -10 -4 -10 -3 0 -8 5 -11 10 -3 6 -1 10 4 10 6 0 11 -4 11 -10z m-990 -20 c0 -13 -7 -20 -20 -20 -19 0 -27 20 -13 33 13 14 33 6 33 -13z m1180 10 c0 -5 -5 -10 -11 -10 -5 0 -7 5 -4 10 3 6 8 10 11 10 2 0 4 -4 4 -10z m750 -35 c-14 -17 -40 -20 -40 -5 0 6 10 20 22 32 21 21 23 21 26 5 2 -10 -2 -24 -8 -32z m120 30 c0 -9 -9 -15 -21 -15 -18 0 -19 2 -9 15 7 8 16 15 21 15 5 0 9 -7 9 -15z m-1707 -9 c3 -8 3 -17 0 -20 -7 -7 -33 13 -33 25 0 15 27 10 33 -5z m1350 -6 c3 -11 4 -20 3 -20 -1 0 -9 9 -19 20 -13 15 -14 20 -3 20 7 0 16 -9 19 -20z m-343 0 c0 -5 -2 -10 -4 -10 -3 0 -8 5 -11 10 -3 6 -1 10 4 10 6 0 11 -4 11 -10z m-953 -6 c-3 -3 -12 -4 -19 -1 -8 3 -5 6 6 6 11 1 17 -2 13 -5z m284 -9 c-1 -15 -24 -12 -29 3 -3 9 2 13 12 10 10 -1 17 -7 17 -13z m1114 -32 c-18 -17 -18 -18 1 -22 23 -4 44 -20 44 -33 0 -6 -7 -5 -15 2 -8 7 -26 10 -39 8 -23 -5 -24 -3 -14 21 5 14 9 27 9 29 -1 1 -1 12 -1 24 0 21 1 21 16 6 16 -15 16 -18 -1 -35z m-1842 22 c4 -8 2 -17 -3 -20 -6 -4 -10 -4 -10 -1 0 2 -3 11 -6 20 -3 9 -2 16 4 16 5 0 12 -7 15 -15z m584 -16 c-6 -10 -13 -15 -15 -9 -6 17 7 42 18 35 6 -4 5 -13 -3 -26z m-657 11 c0 -5 -2 -10 -4 -10 -2 0 -12 -3 -20 -6 -12 -5 -15 -2 -10 10 7 17 34 22 34 6z m271 -33 c-4 -4 -15 -5 -25 -1 -16 6 -16 8 1 26 16 18 18 18 24 1 4 -10 3 -22 0 -26z m1129 34 c0 -17 -18 -21 -24 -6 -3 9 0 15 9 15 8 0 15 -4 15 -9z m852 -23 c-15 -15 -26 -4 -18 18 5 13 9 15 18 6 9 -9 9 -15 0 -24z m-1506 -13 c-32 -30 -38 -31 -34 -7 3 15 47 44 57 36 2 -2 -8 -15 -23 -29z m1062 10 c15 -32 0 -41 -33 -19 -20 13 -23 19 -14 30 17 21 34 17 47 -11z m-1283 -5 c3 -5 2 -10 -4 -10 -5 0 -13 5 -16 10 -3 6 -2 10 4 10 5 0 13 -4 16 -10z m-2174 -10 c23 -13 26 -62 4 -80 -21 -18 -55 12 -48 43 11 53 12 53 44 37z m1862 -31 c19 -20 23 -49 7 -49 -6 0 -14 8 -17 18 -4 9 -17 25 -30 35 -13 10 -23 23 -23 28 0 12 39 -8 63 -32z m227 26 c11 -13 10 -14 -4 -9 -9 3 -16 10 -16 15 0 13 6 11 20 -6z m925 -15 c9 -16 12 -30 7 -30 -15 0 -44 38 -37 49 9 16 13 14 30 -19z m23 12 c6 -18 -15 -14 -22 4 -4 10 -1 14 6 12 6 -2 14 -10 16 -16z m797 -8 c-23 -17 -32 -10 -15 11 7 8 17 12 23 8 6 -4 3 -11 -8 -19z m-3505 6 c0 -5 -7 -10 -15 -10 -8 0 -15 5 -15 10 0 6 7 10 15 10 8 0 15 -4 15 -10z m-705 -18 c-3 -3 -11 0 -18 7 -9 10 -8 11 6 5 10 -3 15 -9 12 -12z m3445 8 c0 -5 -5 -10 -11 -10 -5 0 -7 5 -4 10 3 6 8 10 11 10 2 0 4 -4 4 -10z m-773 -17 c7 -17 -28 -53 -53 -53 -11 0 -11 6 -3 27 16 42 45 56 56 26z m123 -3 c0 -11 -6 -20 -13 -20 -7 0 -22 -7 -34 -15 -17 -12 -20 -21 -14 -42 4 -16 14 -28 22 -28 13 0 59 -39 59 -50 0 -3 12 -17 27 -31 14 -13 24 -25 22 -27 -2 -1 -13 -8 -24 -15 -11 -6 -29 -16 -40 -21 -11 -5 -29 -18 -39 -30 -11 -11 -30 -21 -44 -21 -28 0 -62 -26 -62 -47 0 -7 -7 -13 -16 -13 -9 0 -34 -19 -55 -42 -33 -36 -39 -40 -39 -22 0 11 -3 24 -7 28 -16 15 -10 41 23 101 21 38 40 62 48 59 7 -3 17 11 25 33 8 20 20 43 27 50 6 7 20 34 30 60 29 78 104 145 104 93z m-401 -11 c-16 -10 -23 -4 -14 10 3 6 11 8 17 5 6 -4 5 -9 -3 -15z m-1129 -34 c0 -17 6 -25 23 -27 16 -2 22 -10 22 -28 0 -31 -32 -35 -49 -5 -6 10 -20 27 -31 36 -19 17 -19 18 -1 38 22 24 36 19 36 -14z m1190 25 c0 -5 -4 -10 -10 -10 -5 0 -10 5 -10 10 0 6 5 10 10 10 6 0 10 -4 10 -10z m1070 -3 c0 -8 -3 -17 -7 -20 -9 -9 -34 13 -27 24 8 14 34 11 34 -4z m-3645 -7 c3 -5 1 -10 -4 -10 -6 0 -11 5 -11 10 0 6 2 10 4 10 3 0 8 -4 11 -10z m2075 -9 c0 -38 11 -51 37 -45 19 5 24 3 21 -7 -2 -7 4 -21 15 -30 24 -19 18 -44 -13 -52 -14 -4 -23 0 -27 11 -10 34 -28 67 -40 75 -7 4 -13 17 -13 27 0 11 -4 20 -10 20 -5 0 -10 5 -10 10 0 6 9 10 20 10 13 0 20 -7 20 -19z m156 7 c4 -6 2 -14 -4 -16 -7 -2 -12 -17 -12 -34 0 -22 -4 -29 -15 -25 -8 4 -17 1 -21 -5 -4 -7 -10 -4 -17 8 -7 11 -7 19 0 21 5 2 7 17 5 33 -4 28 -2 30 26 30 17 0 34 -5 38 -12z m474 -20 c0 -16 -3 -19 -11 -11 -6 6 -8 16 -5 22 11 17 16 13 16 -11z m1630 12 c0 -5 -4 -10 -10 -10 -5 0 -10 5 -10 10 0 6 5 10 10 10 6 0 10 -4 10 -10z m-3240 -10 c0 -5 -5 -10 -11 -10 -5 0 -7 5 -4 10 3 6 8 10 11 10 2 0 4 -4 4 -10z m2531 -21 c8 -16 6 -21 -12 -28 -15 -5 -18 -10 -11 -15 18 -11 14 -22 -7 -22 -11 0 -17 4 -15 8 3 4 0 17 -6 28 -9 16 -8 22 4 26 8 3 12 12 9 20 -8 21 25 6 38 -17z m-2331 17 c0 -3 -4 -8 -10 -11 -5 -3 -10 -1 -10 4 0 6 5 11 10 11 6 0 10 -2 10 -4z m-1164 -33 c-8 -8 -36 5 -36 17 0 7 6 7 21 0 11 -7 18 -14 15 -17z m1024 4 c0 -21 -12 -28 -27 -16 -19 16 -16 29 7 29 11 0 20 -6 20 -13z m1107 6 c-4 -3 -1 -13 6 -21 9 -12 9 -16 0 -19 -7 -3 -10 -18 -7 -43 4 -30 1 -38 -8 -35 -8 3 -18 -7 -25 -26 -7 -18 -16 -28 -23 -24 -8 5 -8 11 0 20 11 14 10 57 -3 66 -13 10 5 41 20 35 8 -4 11 -1 8 5 -6 9 21 49 33 49 3 0 2 -3 -1 -7z m688 -40 c-5 -15 -8 -14 -19 7 -16 31 -10 45 11 25 8 -9 12 -23 8 -32z m-1852 31 c3 -4 2 -15 -4 -26 -10 -19 -12 -19 -30 -2 -10 9 -16 21 -13 25 6 10 38 12 47 3z m1305 -47 c6 -7 9 -23 5 -35 -4 -16 -1 -22 11 -22 9 0 16 -7 16 -16 0 -12 -10 -14 -47 -12 -38 2 -47 6 -45 20 1 9 -2 19 -7 22 -5 4 -4 16 2 31 13 27 47 34 65 12z m-1379 -38 c-12 -24 -39 -25 -39 -1 0 27 21 44 37 31 9 -8 10 -16 2 -30z m1666 31 c3 -5 1 -10 -4 -10 -6 0 -11 5 -11 10 0 6 2 10 4 10 3 0 8 -4 11 -10z m855 0 c0 -5 -9 -10 -21 -10 -11 0 -17 5 -14 10 3 6 13 10 21 10 8 0 14 -4 14 -10z m-984 -36 c7 -40 0 -54 -29 -54 -14 0 -26 10 -34 25 -12 28 -2 33 17 10 22 -26 29 -16 15 19 -14 33 -14 35 5 33 14 -1 22 -11 26 -33z m834 6 c9 -16 7 -24 -6 -37 -16 -16 -16 -16 -10 5 6 19 3 22 -21 23 -17 1 -21 3 -10 6 9 2 17 9 17 14 0 16 19 9 30 -11z m195 0 c-10 -11 -15 -26 -11 -36 5 -14 4 -15 -9 -4 -8 7 -15 18 -15 24 0 16 21 36 39 36 11 0 11 -4 -4 -20z m-3550 -19 c-3 -6 -11 -8 -17 -5 -6 4 -5 9 3 15 16 10 23 4 14 -10z m1035 9 c0 -5 -4 -10 -10 -10 -5 0 -10 5 -10 10 0 6 5 10 10 10 6 0 10 -4 10 -10z m1980 -11 c0 -6 -4 -7 -10 -4 -5 3 -10 11 -10 16 0 6 5 7 10 4 6 -3 10 -11 10 -16z m-3260 -3 c0 -8 10 -16 23 -18 16 -2 22 -10 23 -28 2 -34 11 -77 20 -92 5 -8 2 -9 -9 -5 -14 5 -17 -1 -17 -36 0 -24 7 -52 15 -63 8 -10 15 -27 15 -38 0 -15 -4 -13 -22 10 -13 16 -31 38 -40 48 -19 21 -24 46 -9 46 5 0 15 16 21 35 13 41 -2 105 -25 105 -18 0 -28 17 -21 35 7 19 26 19 26 1z m2255 -38 c-21 -17 -65 -21 -65 -6 0 4 9 12 20 18 11 6 20 18 20 26 0 13 4 12 23 -3 l24 -18 -22 -17z m-1931 26 c4 -9 1 -22 -5 -30 -6 -7 -8 -22 -4 -34 7 -23 -10 -28 -19 -4 -8 21 -8 69 1 77 11 11 21 8 27 -9z m2035 -9 c3 -17 2 -17 -13 -3 -19 20 -21 31 -3 26 6 -3 14 -13 16 -23z m491 17 c0 -18 -32 -72 -42 -72 -6 0 -3 11 6 25 9 13 16 31 16 40 0 8 5 15 10 15 6 0 10 -4 10 -8z m-1380 -53 c0 -20 -15 -26 -25 -9 -9 15 3 43 15 35 5 -3 10 -15 10 -26z m1250 -10 c0 -16 -41 -30 -71 -24 -33 7 -39 25 -9 25 11 0 20 4 20 9 0 5 8 11 18 13 18 5 42 -9 42 -23z m1710 20 c0 -17 -23 -21 -37 -6 -13 13 -12 15 11 15 14 0 26 -4 26 -9z m-2466 -34 c4 -20 5 -39 2 -43 -3 -5 -1 -26 5 -48 15 -65 22 -183 11 -197 -5 -6 -13 -59 -16 -117 -4 -58 -12 -126 -17 -151 -7 -32 -7 -59 -1 -83 6 -20 7 -36 2 -36 -5 0 -28 23 -52 51 -24 27 -85 93 -136 146 -83 86 -92 99 -87 125 5 21 3 27 -7 23 -17 -7 -53 30 -43 44 10 17 29 13 43 -9 7 -11 19 -20 27 -20 19 0 19 9 1 29 -8 9 -21 33 -30 54 -14 35 -14 38 2 43 34 11 45 20 49 43 2 12 8 31 13 41 10 18 11 18 34 -3 22 -19 22 -23 9 -43 -8 -13 -11 -32 -7 -48 5 -22 11 -26 45 -26 29 0 41 5 46 18 4 9 12 21 20 25 16 10 18 108 2 124 -12 12 -3 53 12 53 6 0 8 -8 5 -18 -6 -19 28 -47 44 -37 10 6 8 54 -3 72 -7 10 1 23 14 23 4 0 10 -16 13 -35z m1336 25 c0 -5 -4 -10 -10 -10 -5 0 -10 5 -10 10 0 6 5 10 10 10 6 0 10 -4 10 -10z m445 0 c3 -5 2 -10 -4 -10 -5 0 -13 5 -16 10 -3 6 -2 10 4 10 5 0 13 -4 16 -10z m-2027 -12 c31 -31 -8 -80 -47 -58 -22 11 -36 44 -26 60 9 14 58 13 73 -2z m-1105 -19 c-4 -13 -9 -17 -15 -11 -11 11 -3 32 12 32 4 0 6 -9 3 -21z m1935 4 c12 -3 22 -10 21 -17 -4 -30 3 -46 18 -46 15 0 15 1 0 18 -10 10 -14 22 -10 25 12 13 23 7 34 -17 10 -20 15 -23 34 -16 17 6 27 5 35 -6 7 -7 22 -14 34 -13 20 0 20 1 -2 10 -13 5 -20 14 -17 19 5 8 11 7 20 0 9 -7 27 -9 45 -5 26 6 30 4 32 -17 2 -37 -3 -71 -13 -88 -6 -10 -7 -4 -3 18 5 25 3 31 -7 27 -23 -9 -82 -159 -99 -247 -5 -26 -12 -54 -17 -61 -10 -19 -61 -60 -93 -77 -14 -7 -42 -26 -62 -42 -21 -15 -55 -41 -76 -57 -20 -15 -47 -31 -60 -35 -19 -6 -24 -3 -33 22 -6 17 -18 32 -27 34 -13 4 -24 31 -40 99 -13 52 -32 129 -43 171 -29 119 -44 265 -29 283 7 8 16 15 21 15 11 0 44 -60 44 -80 0 -24 60 -35 89 -16 21 13 24 22 19 46 -8 44 10 59 68 58 28 0 53 3 57 6 3 4 13 4 21 0 9 -4 26 -9 39 -11z m1987 -23 c3 -5 1 -10 -4 -10 -6 0 -11 5 -11 10 0 6 2 10 4 10 3 0 8 -4 11 -10z m-4432 -21 c-6 -6 -17 -8 -24 -3 -9 5 -8 9 7 14 23 9 31 3 17 -11z m687 11 c0 -5 -4 -10 -10 -10 -5 0 -10 5 -10 10 0 6 5 10 10 10 6 0 10 -4 10 -10z m1538 -17 c-9 -10 -13 -24 -10 -32 7 -21 -16 -3 -29 22 -7 12 -8 19 -4 15 4 -4 17 -1 28 7 26 18 35 11 15 -12z m2144 15 c24 1 32 -15 11 -22 -35 -11 -93 -15 -93 -6 0 28 13 40 39 33 14 -4 34 -6 43 -5z m-4270 -28 c-6 -16 -11 -20 -16 -11 -4 6 -2 19 5 27 16 20 21 12 11 -16z m3108 21 c0 -6 -4 -13 -10 -16 -5 -3 -10 1 -10 9 0 9 5 16 10 16 6 0 10 -4 10 -9z m-3150 -43 c0 -22 -13 -23 -30 -3 -10 12 -10 18 0 30 11 13 15 13 21 3 5 -7 9 -21 9 -30z m725 31 c4 -6 5 -12 2 -15 -7 -7 -37 7 -37 17 0 13 27 11 35 -2z m2378 -11 c12 -7 31 -20 41 -28 18 -14 19 -13 13 3 -5 12 -3 17 5 15 6 -2 17 -23 24 -47 10 -35 10 -43 -2 -48 -8 -3 -14 -14 -14 -24 0 -10 -6 -19 -12 -19 -27 0 -53 -110 -29 -124 13 -8 69 15 140 56 34 21 70 38 80 38 35 0 60 12 54 26 -6 15 1 17 35 8 12 -4 22 -12 22 -19 0 -7 6 -18 14 -24 19 -16 25 -105 8 -121 -7 -6 -10 -20 -7 -31 8 -23 5 -23 -31 -4 -37 19 -64 19 -64 0 0 -8 -7 -15 -15 -15 -9 0 -18 7 -21 15 -4 8 -15 15 -26 15 -30 0 -16 24 17 30 27 5 28 6 11 23 -10 9 -21 17 -26 17 -16 0 -40 -31 -40 -51 0 -10 -3 -19 -7 -19 -5 -1 -89 -3 -187 -6 -99 -3 -190 -10 -203 -15 -37 -14 -43 -12 -59 26 -20 50 -18 92 7 113 12 9 28 24 37 32 32 31 75 59 83 54 5 -3 6 1 3 9 -4 12 19 37 111 117 13 12 12 12 38 -2z m-1591 -62 c-2 -4 2 -12 9 -17 8 -5 10 -9 4 -9 -26 0 -38 18 -30 46 7 26 8 27 15 9 4 -11 5 -24 2 -29z m1947 28 c7 -6 -29 -35 -38 -29 -5 3 -12 1 -16 -5 -9 -15 -25 -12 -32 5 -8 22 26 45 57 38 14 -3 27 -7 29 -9z m-2519 -2 c0 -13 -12 -22 -22 -16 -10 6 -1 24 13 24 5 0 9 -4 9 -8z m3360 -5 c0 -14 -35 -47 -50 -47 -20 0 -23 31 -4 45 24 18 54 19 54 2z m-4270 -1 c0 -3 -4 -8 -10 -11 -5 -3 -10 -1 -10 4 0 6 5 11 10 11 6 0 10 -2 10 -4z m350 -6 c0 -5 -2 -10 -4 -10 -3 0 -8 5 -11 10 -3 6 -1 10 4 10 6 0 11 -4 11 -10z m178 -23 l22 -32 -22 -5 c-37 -9 -76 39 -51 63 13 14 29 6 51 -26z m852 8 c0 -7 11 -22 24 -32 26 -21 44 -63 27 -63 -6 0 -11 -10 -11 -22 0 -20 -6 -16 -43 25 -36 42 -46 48 -68 42 -32 -8 -45 15 -26 46 9 14 19 18 39 14 14 -4 29 -1 33 5 8 13 25 3 25 -15z m2081 -16 c8 -15 8 -19 0 -15 -6 4 -11 0 -11 -8 0 -9 -4 -16 -10 -16 -5 0 -10 2 -10 4 0 2 -3 11 -6 20 -4 11 -1 16 11 16 9 0 13 5 10 10 -3 6 -4 10 -1 10 3 0 10 -10 17 -21z m729 17 c0 -3 -4 -8 -10 -11 -5 -3 -10 -1 -10 4 0 6 5 11 10 11 6 0 10 -2 10 -4z m125 -37 c-4 -6 -13 -8 -20 -5 -7 2 -18 -1 -24 -7 -7 -7 -11 -7 -11 -1 0 17 11 24 37 24 15 0 22 -4 18 -11z m-3265 -18 c6 -13 17 -17 30 -14 14 4 20 0 20 -12 0 -14 -3 -15 -14 -6 -10 8 -16 9 -21 1 -3 -5 -16 -10 -29 -10 -12 0 -27 -5 -34 -12 -8 -8 -15 -8 -27 2 -19 16 -19 34 1 51 13 10 17 10 25 -2 7 -11 9 -11 9 4 0 23 27 22 40 -2z m-620 -6 c34 -17 39 -35 12 -35 -27 0 -83 30 -77 41 9 13 32 11 65 -6z m3060 11 c0 -3 -4 -8 -10 -11 -5 -3 -10 -1 -10 4 0 6 5 11 10 11 6 0 10 -2 10 -4z m-241 -42 c-16 -20 -29 -17 -29 5 0 14 5 18 20 14 16 -4 18 -8 9 -19z m-43 4 c4 -7 3 -8 -4 -4 -7 4 -12 1 -12 -8 0 -35 -60 -71 -75 -46 -9 15 14 40 36 40 11 0 19 7 19 15 0 18 26 20 36 3z m-556 -7 c0 -12 -29 -23 -41 -15 -5 3 -7 10 -4 15 8 12 45 12 45 0z m1400 -9 c0 -8 -7 -11 -19 -7 -19 6 -44 -15 -39 -33 5 -17 -6 -16 -35 3 -26 17 -29 17 -45 2 -15 -16 -15 -17 1 -17 24 0 21 -17 -5 -31 -19 -10 -25 -8 -45 16 -18 21 -21 30 -13 41 7 7 9 18 6 23 -4 5 3 9 14 8 11 -1 20 -5 20 -9 0 -9 74 0 78 10 1 4 20 7 42 7 27 1 40 -3 40 -13z m-510 -12 c0 -5 -7 -7 -15 -4 -8 4 -12 10 -9 15 6 11 24 2 24 -11z m-2370 -49 c0 -23 -5 -30 -25 -33 -36 -7 -53 17 -30 42 28 31 55 26 55 -9z m-740 4 c7 -9 8 -15 2 -15 -5 0 -12 7 -16 15 -3 8 -4 15 -2 15 2 0 9 -7 16 -15z m150 -17 c0 -6 -7 -7 -16 -4 -9 3 -18 6 -20 6 -3 0 -3 4 1 10 7 11 35 2 35 -12z m3425 -8 c-3 -5 -13 -10 -21 -10 -8 0 -12 5 -9 10 3 6 13 10 21 10 8 0 12 -4 9 -10z m-4010 -20 c3 -5 1 -10 -4 -10 -6 0 -11 5 -11 10 0 6 2 10 4 10 3 0 8 -4 11 -10z m-63 -22 c2 -15 9 -22 20 -22 14 1 16 -2 7 -17 -5 -11 -13 -19 -17 -19 -13 0 -32 39 -26 54 3 8 -2 16 -13 19 -15 4 -14 5 4 6 15 1 23 -6 25 -21z m747 19 c-2 -1 -12 -9 -21 -16 -15 -12 -18 -11 -18 3 0 10 8 16 22 16 12 0 19 -1 17 -3z m515 -27 c-6 -6 -15 -6 -24 0 -13 9 -13 11 0 20 18 11 39 -5 24 -20z m-1129 0 c10 -11 16 -20 13 -20 -3 0 -13 9 -23 20 -10 11 -16 20 -13 20 3 0 13 -9 23 -20z m62 -2 c-3 -8 -6 -5 -6 6 -1 11 2 17 5 13 3 -3 4 -12 1 -19z m3796 6 c3 -3 -3 -14 -14 -25 -11 -11 -16 -25 -12 -36 4 -13 3 -15 -5 -8 -9 8 -9 19 0 43 12 32 19 38 31 26z m-2695 -27 c2 -9 -2 -17 -8 -17 -6 0 -8 5 -5 10 3 6 1 10 -4 10 -6 0 -11 5 -11 11 0 17 25 4 28 -14z m2622 -13 c0 -8 -7 -14 -15 -14 -8 0 -15 -6 -15 -14 0 -20 -19 -31 -32 -18 -7 7 -3 17 11 31 12 12 21 25 21 31 0 5 7 7 15 4 8 -4 15 -12 15 -20z m-2780 -9 c0 -8 -4 -15 -10 -15 -5 0 -10 7 -10 15 0 8 5 15 10 15 6 0 10 -7 10 -15z m3045 5 c31 -12 24 -30 -11 -30 -17 0 -24 5 -24 20 0 23 0 23 35 10z m-3739 -24 c18 -14 18 -16 3 -31 -11 -11 -24 -15 -38 -10 -23 7 -27 25 -9 43 15 15 20 15 44 -2z m384 -12 c0 -16 -16 -19 -25 -4 -3 5 -12 7 -20 3 -14 -5 -21 8 -10 19 10 10 55 -5 55 -18z m-830 -24 c-6 -21 0 -31 29 -57 20 -18 41 -33 47 -33 25 0 32 -22 13 -41 -10 -10 -19 -28 -19 -39 0 -11 -5 -20 -11 -20 -6 0 -9 8 -7 18 3 12 -8 22 -37 34 -29 12 -39 21 -37 35 4 17 3 29 -1 91 -1 12 -8 22 -14 22 -7 0 -13 4 -13 9 0 4 13 8 28 7 26 -1 28 -4 22 -26z m279 11 c9 -16 8 -18 -9 -14 -21 5 -25 15 -13 26 9 10 11 9 22 -12z m689 -3 c-3 -7 -13 -15 -24 -17 -16 -3 -17 -1 -5 13 16 19 34 21 29 4z m-230 -24 c0 -20 -5 -24 -22 -22 -11 2 -19 8 -17 13 1 6 7 9 12 7 5 -1 12 5 15 13 9 21 12 19 12 -11z m67 16 c3 -5 2 -10 -4 -10 -5 0 -13 5 -16 10 -3 6 -2 10 4 10 5 0 13 -4 16 -10z m50 -30 c-3 -5 -10 -10 -16 -10 -5 0 -9 5 -9 10 0 6 7 10 16 10 8 0 12 -4 9 -10z m-413 -48 c-27 -4 -37 2 -27 17 4 8 13 7 28 -1 l22 -13 -23 -3z m3433 -12 c15 -30 15 -30 -11 -30 -22 0 -24 3 -15 14 8 10 9 16 1 21 -9 6 -5 25 5 25 3 0 11 -13 20 -30z m36 15 c-1 -15 -24 -12 -29 3 -3 9 2 13 12 10 10 -1 17 -7 17 -13z m-452 -39 c24 -9 47 -14 51 -11 5 3 20 -8 33 -25 14 -16 33 -30 41 -30 14 0 16 -78 16 -765 l0 -765 -22 -4 c-47 -11 -175 -26 -233 -28 -59 -2 -60 -1 -66 28 -8 35 -11 1628 -4 1636 8 7 129 -17 184 -36z m-2654 -7 c5 -6 5 -13 -3 -21 -7 -7 -12 -22 -12 -34 0 -13 -4 -26 -10 -29 -5 -3 -10 2 -10 13 0 29 -12 34 -24 10 -20 -39 -36 -33 -36 12 0 29 4 39 12 34 7 -5 9 0 6 14 -5 18 -2 20 31 15 20 -3 40 -10 46 -14z m265 -9 c-8 -5 -21 -10 -29 -10 -11 0 -10 5 4 20 13 15 22 17 29 10 8 -8 6 -14 -4 -20z m-75 10 c3 -6 -6 -15 -20 -20 -16 -6 -23 -15 -19 -21 4 -7 1 -10 -7 -7 -25 8 -20 34 8 45 15 6 29 11 30 12 1 1 5 -4 8 -9z m-380 -40 c-9 -14 -25 5 -25 30 0 12 3 12 16 -2 9 -9 13 -21 9 -28z m-245 10 c-9 -18 -40 -29 -40 -15 0 11 25 34 38 35 10 0 10 -5 2 -20z m3666 6 c7 -8 19 -16 26 -19 10 -3 9 -9 -4 -23 -11 -11 -18 -13 -18 -6 0 7 -6 12 -14 12 -19 0 -48 29 -41 41 9 13 34 11 51 -5z m-3776 -17 c0 -5 -4 -9 -10 -9 -5 0 -10 7 -10 16 0 8 5 12 10 9 6 -3 10 -10 10 -16z m20 -23 c0 -3 -4 -8 -10 -11 -5 -3 -10 -1 -10 4 0 6 5 11 10 11 6 0 10 -2 10 -4z m3589 -22 c3 -16 1 -17 -13 -5 -19 16 -21 34 -3 29 6 -3 14 -13 16 -24z m-2882 -18 c-3 -7 -26 -19 -51 -27 -25 -7 -48 -20 -51 -28 -8 -21 5 -28 16 -8 10 18 39 24 39 8 0 -5 -12 -20 -27 -33 -33 -27 -142 -164 -181 -224 -15 -24 -32 -43 -38 -44 -6 0 -17 -7 -24 -15 -10 -12 -16 -13 -26 -4 -19 15 -18 39 1 39 8 0 15 5 15 10 0 6 -9 10 -20 10 -11 0 -20 -4 -20 -10 0 -5 -7 -10 -15 -10 -23 0 -18 27 6 33 19 5 21 11 15 41 -6 33 -5 36 34 56 22 11 54 37 72 57 18 20 41 45 51 55 9 10 17 22 17 28 0 12 77 50 101 50 9 0 19 7 23 15 3 8 14 15 25 15 11 0 23 5 27 12 10 15 18 -6 11 -26z m-747 9 c0 -9 6 -12 17 -8 10 4 14 2 10 -4 -4 -6 -18 -13 -32 -15 -21 -4 -24 -2 -23 18 3 26 28 34 28 9z m-260 -5 c0 -5 -7 -10 -16 -10 -8 0 -12 5 -9 10 3 6 10 10 16 10 5 0 9 -4 9 -10z m438 -18 c2 -7 -2 -10 -12 -6 -9 3 -16 11 -16 16 0 13 23 5 28 -10z m189 1 c0 -10 -4 -24 -10 -31 -8 -10 -14 -9 -29 5 -20 18 -19 18 9 30 15 7 28 12 29 13 0 0 1 -8 1 -17z m163 -8 c-7 -8 -17 -15 -22 -15 -6 0 -5 7 2 15 7 8 17 15 22 15 6 0 5 -7 -2 -15z m-808 -22 c-5 -10 -7 -25 -5 -33 3 -11 1 -11 -6 2 -12 17 -5 48 10 48 6 0 6 -7 1 -17z m166 -33 c2 -5 10 -6 18 -3 8 3 14 0 14 -6 0 -6 -9 -11 -20 -11 -11 0 -20 -4 -20 -9 0 -5 -16 -9 -35 -9 -35 0 -47 14 -21 24 9 3 12 12 9 21 -5 13 -1 15 23 9 16 -4 30 -11 32 -16z m157 -1 c11 -17 -1 -21 -15 -4 -8 9 -8 15 -2 15 6 0 14 -5 17 -11z m335 7 c0 -3 -4 -8 -10 -11 -5 -3 -10 -1 -10 4 0 6 5 11 10 11 6 0 10 -2 10 -4z m120 0 c0 -2 -7 -9 -15 -16 -12 -10 -15 -10 -15 4 0 9 7 16 15 16 8 0 15 -2 15 -4z m-746 -27 c-3 -5 -10 -7 -15 -3 -5 3 -7 10 -3 15 3 5 10 7 15 3 5 -3 7 -10 3 -15z m320 -4 c-4 -8 -8 -15 -10 -15 -2 0 -4 7 -4 15 0 8 4 15 10 15 5 0 7 -7 4 -15z m216 7 c0 -13 -12 -22 -22 -16 -10 6 -1 24 13 24 5 0 9 -4 9 -8z m60 -2 c0 -12 -28 -25 -36 -17 -9 9 6 27 22 27 8 0 14 -5 14 -10z m-230 -10 c0 -5 -2 -10 -4 -10 -3 0 -8 5 -11 10 -3 6 -1 10 4 10 6 0 11 -4 11 -10z m-273 -26 c-3 -3 -12 -4 -19 -1 -8 3 -5 6 6 6 11 1 17 -2 13 -5z m295 -19 c-5 -28 -4 -27 -26 -19 -12 5 -13 10 -5 25 15 28 37 24 31 -6z m205 9 c-3 -3 -12 -4 -19 -1 -8 3 -5 6 6 6 11 1 17 -2 13 -5z m3403 -4 c0 -5 -4 -10 -10 -10 -5 0 -10 5 -10 10 0 6 5 10 10 10 6 0 10 -4 10 -10z m-3800 -39 c0 -5 -7 -11 -15 -15 -9 -3 -15 0 -15 9 0 8 7 15 15 15 8 0 15 -4 15 -9z m386 -67 c-3 -26 -23 -47 -38 -38 -5 3 -6 10 -3 15 9 14 -18 10 -38 -5 -16 -12 -17 -19 -7 -55 6 -23 8 -46 5 -52 -4 -5 -1 -17 7 -26 12 -15 11 -15 -12 -3 -14 7 -51 14 -82 14 -40 1 -58 5 -58 13 0 7 5 13 12 13 6 0 3 8 -7 20 -16 18 -16 20 -1 26 9 3 16 13 16 21 0 11 5 13 18 8 40 -17 48 -16 62 9 7 14 21 26 31 26 10 0 22 6 26 14 4 8 22 16 38 19 17 2 31 5 32 6 1 0 0 -11 -1 -25z m4 -94 c0 -5 -5 -10 -11 -10 -5 0 -7 5 -4 10 3 6 8 10 11 10 2 0 4 -4 4 -10z m-295 -50 c3 -5 1 -10 -4 -10 -6 0 -11 5 -11 10 0 6 2 10 4 10 3 0 8 -4 11 -10z m1705 -406 c0 -8 5 -12 10 -9 13 8 13 3 0 -30 -5 -14 -14 -24 -19 -21 -11 7 -23 65 -15 77 8 13 24 1 24 -17z m5 -125 c-4 -5 -13 -9 -22 -9 -13 0 -13 3 -3 15 13 15 35 11 25 -6z m1382 -645 c-3 -3 -12 -4 -19 -1 -8 3 -5 6 6 6 11 1 17 -2 13 -5z m-270 -30 c-9 -9 -28 6 -21 18 4 6 10 6 17 -1 6 -6 8 -13 4 -17z m108 16 c-28 -12 -37 -12 -30 0 3 6 16 10 28 9 21 0 21 -1 2 -9z m118 -7 c3 -5 -11 -9 -30 -11 -21 -1 -32 2 -28 8 7 12 52 14 58 3z m-98 -13 c3 -5 4 -10 1 -10 -2 0 -12 -3 -20 -6 -12 -5 -15 -2 -10 10 7 18 20 21 29 6z m568 -417 c-7 -2 -21 -2 -30 0 -10 3 -4 5 12 5 17 0 24 -2 18 -5z"/>
    <path d="M3120 3080 c0 -5 5 -10 10 -10 6 0 10 5 10 10 0 6 -4 10 -10 10 -5 0 -10 -4 -10 -10z"/>
    <path d="M2040 2980 c0 -5 5 -10 10 -10 6 0 10 5 10 10 0 6 -4 10 -10 10 -5 0 -10 -4 -10 -10z"/>
    <path d="M1836 2810 c16 -16 76 -22 71 -7 -2 7 -21 13 -43 15 -29 3 -36 0 -28 -8z"/>
    <path d="M2626 3011 c-4 -5 -2 -12 3 -15 5 -4 12 -2 15 3 4 5 2 12 -3 15 -5 4 -12 2 -15 -3z"/>
    <path d="M2846 2945 c-18 -27 -21 -55 -6 -55 6 0 10 6 10 13 0 8 9 22 20 32 23 21 26 35 6 35 -7 0 -21 -11 -30 -25z"/>
    <path d="M250 2490 c0 -5 5 -10 10 -10 6 0 10 5 10 10 0 6 -4 10 -10 10 -5 0 -10 -4 -10 -10z"/>
    <path d="M300 2472 c0 -12 19 -26 26 -19 2 2 -2 10 -11 17 -9 8 -15 8 -15 2z"/>
    <path d="M1005 2460 c3 -5 8 -10 11 -10 2 0 4 5 4 10 0 6 -5 10 -11 10 -5 0 -7 -4 -4 -10z"/>
    <path d="M645 2030 c3 -5 10 -10 16 -10 5 0 9 5 9 10 0 6 -7 10 -16 10 -8 0 -12 -4 -9 -10z"/>
    <path d="M2800 4820 c0 -5 5 -10 10 -10 6 0 10 5 10 10 0 6 -4 10 -10 10 -5 0 -10 -4 -10 -10z"/>
    <path d="M1546 4701 c-8 -13 4 -42 15 -35 12 7 12 44 0 44 -6 0 -12 -4 -15 -9z"/>
    <path d="M2492 4693 c3 -18 6 -19 56 -22 25 -2 26 -3 9 -15 -16 -12 -16 -14 -1 -20 23 -9 34 1 34 34 0 35 -13 45 -40 30 -13 -7 -20 -7 -20 0 0 5 -9 10 -21 10 -14 0 -19 -5 -17 -17z"/>
    <path d="M4230 4660 c0 -5 5 -10 10 -10 6 0 10 5 10 10 0 6 -4 10 -10 10 -5 0 -10 -4 -10 -10z"/>
    <path d="M2473 4653 c-22 -8 -14 -23 12 -23 14 0 25 4 25 9 0 11 -21 19 -37 14z"/>
    <path d="M4255 4510 c-3 -5 -1 -10 4 -10 6 0 11 5 11 10 0 6 -2 10 -4 10 -3 0 -8 -4 -11 -10z"/>
    <path d="M4540 4165 c-16 -19 -10 -19 26 0 25 13 26 15 8 15 -12 0 -27 -7 -34 -15z"/>
    <path d="M4796 3472 c-10 -17 7 -51 28 -54 13 -2 22 -11 24 -25 4 -29 28 -30 35 -1 7 24 -9 41 -30 33 -7 -2 -16 1 -20 8 -8 12 -9 17 -12 37 -1 12 -18 13 -25 2z"/>
    <path d="M4790 3381 c0 -5 5 -13 10 -16 6 -3 10 -2 10 4 0 5 -4 13 -10 16 -5 3 -10 2 -10 -4z"/>
    <path d="M275 3360 c4 -6 11 -8 16 -5 14 9 11 15 -7 15 -8 0 -12 -5 -9 -10z"/>
    <path d="M4730 2920 c0 -13 5 -20 13 -17 6 2 12 10 12 17 0 7 -6 15 -12 18 -8 2 -13 -5 -13 -18z"/>
    <path d="M4590 2830 c11 -20 30 -28 30 -12 0 11 -22 32 -32 32 -5 0 -4 -9 2 -20z"/>
    <path d="M155 2501 c-3 -5 -1 -12 5 -16 5 -3 10 1 10 9 0 18 -6 21 -15 7z"/>
    <path d="M4465 2290 c-4 -6 -1 -17 5 -25 7 -8 10 -20 8 -27 -6 -18 18 -40 40 -36 13 3 17 13 17 48 0 43 -1 45 -32 48 -17 2 -34 -2 -38 -8z"/>
    <path d="M4110 2270 c0 -5 5 -10 10 -10 6 0 10 5 10 10 0 6 -4 10 -10 10 -5 0 -10 -4 -10 -10z"/>
    <path d="M4374 2208 c-4 -6 1 -15 10 -20 16 -9 16 -12 -4 -33 -29 -30 -18 -48 23 -39 40 8 45 13 27 25 -12 8 -11 9 5 6 11 -2 19 -9 17 -16 -3 -16 30 -10 35 6 3 7 -8 18 -24 25 l-28 11 30 7 c34 8 25 14 -43 29 -28 6 -44 5 -48 -1z"/>
    <path d="M4508 2183 c7 -3 16 -2 19 1 4 3 -2 6 -13 5 -11 0 -14 -3 -6 -6z"/>
    <path d="M4258 2121 c3 -9 16 -31 29 -50 13 -19 23 -41 23 -50 0 -42 63 -58 74 -18 9 33 7 49 -4 42 -5 -3 -10 0 -10 7 0 7 -11 30 -25 50 -20 30 -30 36 -59 35 -26 -1 -33 -4 -28 -16z"/>
    <path d="M2717 1163 c-4 -3 -7 -11 -7 -17 0 -6 5 -5 12 2 6 6 9 14 7 17 -3 3 -9 2 -12 -2z"/>
  </g>
  <text style="fill: rgb(51, 51, 51); font-family: Arial, sans-serif; font-size: 88.4px; white-space: pre;" x="85.788" y="77.694">Dithering</text>
</svg>